<svg width="21" height="22" viewBox="0 0 21 22" fill="none" xmlns="http://www.w3.org/2000/svg">
<path fill-rule="evenodd" clip-rule="evenodd" d="M7.23321 21.1377C8.94053 21.1377 10.351 21.0426 11.3724 20.9407C12.7793 20.8004 13.8578 19.7172 13.977 18.3027C14.0561 17.3628 14.1366 16.0176 14.1813 14.1602L11.1899 14.269C11.1732 14.5695 11.1558 14.8497 11.1389 15.1032C11.0857 15.8978 10.6266 16.5946 9.91302 16.9203C9.1855 17.2524 8.33506 17.1317 7.69792 16.5926C7.22929 16.196 6.62563 15.6518 5.87301 14.9132C4.60314 13.667 3.93772 12.7473 3.59016 12.1503C3.17306 11.4338 3.17298 10.5651 3.59005 9.8485C3.93762 9.25133 4.6031 8.3315 5.8731 7.08538C6.62554 6.34714 7.22902 5.80313 7.69756 5.40663C8.33479 4.8674 9.18527 4.74669 9.91284 5.07871C10.6265 5.40442 11.0857 6.10117 11.1389 6.89601C11.1559 7.14977 11.1733 7.4302 11.19 7.73104L14.1813 7.8398C14.1366 5.9825 14.0561 4.63723 13.977 3.69734C13.8578 2.28286 12.7793 1.19964 11.3724 1.05931C10.351 0.957424 8.94053 0.86235 7.23321 0.86235C5.52594 0.86235 4.1155 0.957424 3.09402 1.05931C1.68713 1.19964 0.60865 2.28286 0.489504 3.69734C0.370997 5.10417 0.249512 7.41911 0.249512 11C0.249512 14.5809 0.370997 16.8959 0.489504 18.3027C0.60865 19.7172 1.68713 20.8004 3.09402 20.9407C4.1155 21.0426 5.52594 21.1377 7.23321 21.1377ZM9.79065 15.0131C9.74699 15.6667 9.07159 15.9838 8.57151 15.5607C8.13123 15.1881 7.55212 14.6667 6.82027 13.9485C5.61731 12.768 5.03338 11.9419 4.75881 11.4703C4.58638 11.174 4.58634 10.8246 4.75877 10.5284C5.03329 10.0567 5.61722 9.23055 6.82027 8.05022C7.55194 7.33229 8.13095 6.81099 8.5712 6.43842C9.07137 6.01516 9.74699 6.33236 9.79069 6.98608C9.8289 7.5578 9.86945 8.26644 9.8982 9.03659L19.5885 9.38897C20.1519 9.40947 20.6461 9.78024 20.7116 10.3402C20.7348 10.5388 20.7506 10.7615 20.7506 11C20.7506 11.2385 20.7348 11.4612 20.7116 11.6598C20.6461 12.2198 20.1519 12.5905 19.5885 12.611L9.8981 12.9634C9.8694 13.7332 9.82885 14.4416 9.79065 15.0131Z" fill="#5F8C86"/>
</svg>
