<svg width="116" height="105" viewBox="0 0 116 105" fill="none" xmlns="http://www.w3.org/2000/svg">
<g clip-path="url(#clip0_157_994)">
<path d="M95.8973 50.5303C95.8579 50.4906 95.8184 50.4497 95.7778 50.41C95.7898 50.4473 95.8913 50.493 95.8973 50.5303Z" fill="#FCFBFD"/>
<path d="M56.2328 66.6536C56.3677 66.7462 56.6353 67.9876 57.5037 68.091L62.522 67.1432C71.7808 66.0955 75.9796 77.9041 84.1287 80.8451C86.7555 81.793 91.0498 81.6835 93.7208 80.8776C94.1341 80.7525 94.6036 80.4686 95.0097 80.37C95.3836 80.2798 94.9775 81.0147 94.9201 81.123C93.2012 84.3226 89.6057 87.4549 86.3362 88.9585C85.8823 90.1205 85.6697 91.3474 85.2026 92.5082C83.7787 96.053 80.575 99.2286 76.9352 100.422C75.3668 100.935 73.759 100.853 72.2144 101.442C70.0965 102.249 68.1626 103.705 65.9121 104.358C65.3793 104.513 62.092 105.148 61.8447 104.97C61.6464 104.827 61.724 103.625 61.7635 103.308C62.0501 101.043 64.1501 99.1107 64.1322 96.6605C64.1155 94.4592 62.5375 92.5238 62.0931 90.4657C62.8314 90.598 63.5099 90.9709 64.1633 91.3269C65.365 91.9801 66.5416 92.7331 67.8305 93.2876C70.6388 94.4989 73.6825 95.27 75.5711 92.1894C77.4596 89.1088 76.4025 84.835 72.9264 83.465C68.9617 81.9024 62.5745 82.7312 60.6884 87.0652C59.5321 89.7211 60.0457 91.8057 59.7029 94.4929C59.5213 95.9111 59.0507 97.9018 58.5669 99.2431C58.1822 100.311 57.0546 103.136 56.4573 103.976C56.3701 104.098 56.2471 104.299 56.1169 104.358C55.3345 104.717 51.4487 103.347 50.5444 102.873C40.2165 97.4676 41.1052 84.2853 48.0538 76.3885C49.1659 75.1242 50.6149 73.9972 51.6947 72.7173C52.7447 71.4735 54.8829 67.237 55.8792 66.7065C55.9735 66.656 56.1575 66.5995 56.2316 66.6512L56.2328 66.6536Z" fill="#3E2874"/>
<path d="M53.3706 64.9648L52.765 61.9083C50.7068 54.4974 42.1265 51.5948 35.2734 50.8936C34.2927 50.7937 33.7146 51.0812 32.741 50.5568C32.1103 50.2163 30.4141 48.8415 29.7798 48.8415C28.9711 48.8415 28.2962 49.8856 27.7491 50.2909C26.7899 51.003 25.139 51.0632 23.9552 51.5227C22.2423 52.1854 21.3129 53.2416 19.2309 52.7352C18.4437 52.5439 16.9075 51.6213 16.9302 50.7119C16.9529 49.8026 18.4126 47.629 18.8713 46.6426C19.9906 44.2381 20.8291 41.5605 21.9006 39.1078C22.4824 37.7762 23.2242 36.5313 23.7295 35.1636C23.7892 34.6151 22.7631 34.6656 22.3139 34.4683C22.167 34.4034 22.0225 34.4731 22.0774 34.235C22.6233 33.245 23.7044 34.3793 24.3458 33.9908C24.4295 33.9403 25.4914 32.5028 25.5225 32.409C25.667 31.9832 25.0279 32.0542 24.6576 31.8737C24.2455 31.6729 22.5791 30.636 23.389 30.1368C23.6363 29.984 25.9167 30.5265 26.4064 30.4736C27.2916 30.6685 27.8375 31.045 28.2341 31.8809C28.4658 32.3681 28.6521 34.0557 29.1825 34.0533C29.2888 34.0533 29.8156 32.308 29.9387 32.0457C30.5132 30.8176 31.4211 30.132 32.8008 29.99C34.8864 29.7735 34.46 31.3517 33.9236 32.6905C33.7337 33.1644 33.263 33.7815 33.1245 34.1724C33.0743 34.312 33.0158 34.3721 33.1818 34.4767C33.3479 34.5814 36.5301 34.3697 37.1716 34.4286C40.0444 34.6945 44.8333 36.2847 47.4828 37.5176C50.8 39.0609 53.8544 42.127 55.3058 45.5179C58.0484 51.9256 56.2507 58.9697 53.3718 64.9648H53.3706Z" fill="#BD7C46"/>
<path d="M80.5509 25.614C80.527 25.614 80.5043 25.6152 80.4816 25.6152C77.0892 19.697 70.7438 15.7119 63.4703 15.7119C57.1572 15.7119 51.5441 18.7155 47.9521 23.3778C45.6837 22.2195 43.1202 21.5639 40.4026 21.5639C34.8015 21.5639 29.8453 24.3365 26.8088 28.5923C26.81 28.5923 26.8124 28.5923 26.8136 28.5923C27.7776 28.8052 28.5326 29.201 29.1203 29.8108C29.9947 28.8148 31.1761 28.2206 32.6035 28.0727C34.344 27.8922 35.253 28.5815 35.7081 29.1901C36.4583 30.1945 36.3269 31.4215 36.0641 32.3585C39.8687 32.5004 43.8094 33.5878 47.3369 35.3488C47.5256 35.4282 47.7096 35.5088 47.8864 35.587V27.9921L56.1203 24.096V28.0378L64.6015 23.8855V28.033C65.0602 28.033 65.5225 28.033 65.9776 28.0342C66.0349 28.0342 66.0923 28.0342 66.1496 28.0342L67.1351 19.2532H71.1034L71.1702 20.3851C71.2754 22.1653 71.8452 34.8929 71.9789 37.8929C73.8042 37.0064 75.7226 36.3833 77.7043 36.1163C81.2055 32.4054 89.2089 32.8637 95.0215 33.6684C91.9993 28.8293 86.649 25.6116 80.5533 25.6116L80.5509 25.614Z" fill="#CFC1DA"/>
<path d="M54.9247 29.9612L63.4059 25.8088V29.2394C64.6399 29.2322 65.9921 29.2394 67.2153 29.2394L68.202 20.4573H69.9771C70.0941 22.448 70.812 38.5605 70.812 38.5605C64.5634 41.9069 60.5617 47.3427 59.2275 50.8912C59.2275 50.6001 59.2454 50.3102 59.1952 50.0203C58.6123 46.6426 56.7906 42.6106 54.4517 40.123C52.9275 38.5016 51.0795 36.9859 49.0823 36.0212V28.7583L54.9271 25.9929V29.9624L54.9247 29.9612Z" fill="#575655"/>
<path d="M97.45 55.2215C97.094 54.9605 96.744 54.7391 96.3749 54.4998C96.2865 54.4432 96.1981 54.418 96.136 54.3795C89.8588 50.4365 78.0317 50.7745 71.3291 53.6373C68.6653 54.7752 66.164 56.5555 64.0031 58.4693C62.8253 59.2162 61.8816 60.2543 60.8973 61.2359C60.8161 61.3165 60.7384 61.3958 60.6584 61.4764C60.6082 61.527 56.9553 65.565 56.9553 65.565C59.3551 65.2727 61.4384 64.3549 64.2969 64.2382C67.4338 64.077 70.143 65.1753 72.7232 67.3705C73.6238 68.1368 74.4875 69.0269 75.2508 69.8472C75.7728 70.4066 77.6208 72.6632 77.6208 72.6632C82.0429 77.4578 88.3393 79.4786 94.5831 77.2341C94.7504 77.1739 95.0024 77.0669 95.1804 76.9935C95.215 76.9791 95.2664 77.0079 95.2999 76.9935C96.4848 76.4895 98.3471 75.4935 99.4807 74.1066C101.275 71.9114 103.046 68.8043 103.189 65.992C103.425 61.3165 101.043 57.851 97.45 55.2215Z" fill="#328A96"/>
<path d="M95.1805 76.9935C95.0515 77.2004 94.809 77.2389 94.5833 77.2341C94.7505 77.1739 95.0025 77.0669 95.1805 76.9935Z" fill="#80AE4E"/>
<path d="M98.7629 50.7709C98.6601 50.7444 98.432 50.5387 98.4069 50.4689C98.2827 50.1189 98.905 50.3126 98.7629 50.7709Z" fill="#FCFBFD"/>
<path d="M99.1225 50.2885C98.9731 50.3691 98.7056 50.0961 98.7641 50.0503C98.9134 49.9698 99.181 50.2428 99.1225 50.2885Z" fill="#FCFBFD"/>
<path d="M98.6434 50.1694C98.6016 50.2512 98.4403 50.0985 98.5263 49.9301C98.5682 49.8483 98.7294 50.001 98.6434 50.1694Z" fill="#FCFBFD"/>
<path d="M9.89304 82.5388L9.02939 82.9501L7.54936 79.813L10.2801 78.5127C10.8881 78.8135 11.4089 79.1731 11.8413 79.5941C12.2749 80.0151 12.6178 80.4951 12.871 81.034C13.2126 81.7617 13.3691 82.4967 13.3393 83.2388C13.3094 83.981 13.0729 84.6438 12.6297 85.226C12.1865 85.8082 11.6036 86.2713 10.8809 86.6153C10.1642 86.9569 9.42478 87.1241 8.66267 87.1181C7.90056 87.1121 7.2352 86.898 6.6678 86.4746C6.10039 86.0523 5.64408 85.4714 5.29647 84.7328C5.04443 84.1975 4.90347 83.6719 4.87241 83.1558C4.84135 82.641 4.92258 82.1863 5.1149 81.7942C5.30722 81.402 5.62139 81.0231 6.0562 80.6587L6.71319 81.4285C6.39067 81.7184 6.16131 81.9975 6.02394 82.2645C5.88777 82.5315 5.82685 82.8491 5.84118 83.2172C5.85671 83.5853 5.95227 83.9557 6.12787 84.3298C6.33811 84.7785 6.58776 85.1334 6.87684 85.3956C7.16592 85.6578 7.46814 85.837 7.78349 85.9321C8.09885 86.0271 8.41421 86.068 8.73076 86.0536C9.27427 86.0259 9.81301 85.8851 10.3446 85.6313C11.0004 85.3186 11.4961 84.9433 11.8306 84.5055C12.165 84.0676 12.3383 83.5804 12.3478 83.044C12.3574 82.5075 12.2475 81.9939 12.0181 81.5055C11.8186 81.0809 11.5427 80.7056 11.1903 80.3784C10.8379 80.0512 10.5214 79.8275 10.2383 79.706L8.86813 80.3591L9.89184 82.5375L9.89304 82.5388Z" fill="black"/>
<path d="M11.0006 76.8167L3.30777 79.5015L2.98047 78.55L10.6733 75.8652L11.0006 76.8167Z" fill="black"/>
<path d="M7.42999 75.6451C6.37163 75.9169 5.51276 75.8219 4.85338 75.36C4.30509 74.9739 3.94075 74.4242 3.76038 73.7133C3.5597 72.9218 3.65406 72.2097 4.04229 71.5746C4.43051 70.9407 5.07795 70.5064 5.9858 70.2743C6.72163 70.0854 7.32845 70.0481 7.80507 70.1624C8.28288 70.2767 8.69261 70.516 9.03305 70.8805C9.37349 71.245 9.60762 71.6792 9.73424 72.1808C9.93851 72.9867 9.84653 73.7037 9.4595 74.3316C9.07247 74.9595 8.39636 75.3985 7.43118 75.6451H7.42999ZM7.17555 74.6431C7.9078 74.4554 8.41548 74.1535 8.69739 73.7385C8.98049 73.3235 9.05933 72.8725 8.93629 72.3841C8.81326 71.9005 8.52896 71.5445 8.0822 71.3159C7.63545 71.0886 7.03579 71.0706 6.28682 71.263C5.57965 71.4447 5.08512 71.743 4.80321 72.1604C4.5213 72.5766 4.44007 73.0252 4.56191 73.5064C4.68495 73.9947 4.96925 74.352 5.41242 74.5805C5.85679 74.8091 6.4445 74.8295 7.17555 74.6419V74.6431Z" fill="black"/>
<path d="M8.64594 67.6664L8.76539 68.5926L0.69273 69.6536L0.563721 68.6552L3.44374 68.2763C2.86439 67.9238 2.53231 67.4198 2.4475 66.7655C2.40091 66.4034 2.42839 66.051 2.53231 65.7082C2.63504 65.3653 2.80467 65.073 3.03999 64.8288C3.27531 64.5859 3.57036 64.3802 3.92633 64.213C4.2823 64.0458 4.67053 63.9351 5.09339 63.8798C6.09561 63.7487 6.90311 63.8954 7.51471 64.3224C8.12631 64.7495 8.47751 65.3124 8.56829 66.0113C8.65788 66.7065 8.44048 67.2899 7.91608 67.7603L8.64833 67.664L8.64594 67.6664ZM5.67871 68.0682C6.37991 67.9756 6.87444 67.8132 7.16113 67.5798C7.63058 67.1985 7.83127 66.7402 7.76079 66.2037C7.70464 65.7671 7.46693 65.4147 7.05004 65.1464C6.63195 64.8782 6.05141 64.7928 5.30602 64.8902C4.54271 64.99 3.9992 65.2174 3.67429 65.5698C3.35057 65.9223 3.21678 66.3156 3.27292 66.7474C3.32907 67.1841 3.56678 67.5365 3.98367 67.8048C4.40056 68.073 4.96558 68.1608 5.67871 68.067V68.0682Z" fill="black"/>
<path d="M7.28431 58.6232C7.60325 58.9925 7.82902 59.3498 7.96161 59.6926C8.09421 60.0366 8.16349 60.4059 8.16707 60.8004C8.17424 61.4524 8.02134 61.9564 7.70837 62.31C7.3954 62.6637 6.99285 62.8429 6.5007 62.8489C6.21162 62.8525 5.94763 62.7888 5.70753 62.6589C5.46743 62.529 5.27391 62.3582 5.12698 62.1453C4.98006 61.9323 4.86896 61.6918 4.79132 61.4247C4.73757 61.2275 4.68381 60.9303 4.63245 60.531C4.52733 59.7191 4.40668 59.1224 4.26931 58.7399C4.13194 58.7375 4.04474 58.7363 4.00771 58.7375C3.60037 58.7423 3.31488 58.8398 3.15003 59.0322C2.92665 59.292 2.81795 59.6758 2.82273 60.1822C2.82751 60.6561 2.91351 61.0037 3.08075 61.2275C3.24798 61.4512 3.54064 61.6148 3.96112 61.7182L3.83808 62.7034C3.4188 62.618 3.07955 62.4748 2.82034 62.2728C2.56112 62.0707 2.35925 61.776 2.2171 61.3898C2.07375 61.0037 1.99969 60.5551 1.99492 60.0438C1.99014 59.5374 2.04509 59.1248 2.15976 58.8061C2.27444 58.4885 2.42136 58.254 2.59935 58.1024C2.77734 57.952 3.0031 57.845 3.27665 57.7824C3.44627 57.7475 3.75327 57.7271 4.19764 57.7223L5.53074 57.7078C6.46008 57.6982 7.04779 57.6706 7.29267 57.6249C7.53875 57.5791 7.77407 57.4925 7.99745 57.3626L8.0082 58.4139C7.80155 58.521 7.56025 58.5896 7.28312 58.6232H7.28431ZM5.05292 58.7303C5.20463 59.0948 5.33603 59.6409 5.44831 60.371C5.51162 60.7836 5.5821 61.0759 5.65736 61.2467C5.73381 61.4175 5.84251 61.5486 5.98585 61.64C6.1292 61.7315 6.28807 61.7772 6.46247 61.7748C6.72885 61.7724 6.94984 61.6677 7.12544 61.4632C7.30104 61.2587 7.38704 60.9604 7.38226 60.5683C7.37868 60.181 7.29028 59.8369 7.11827 59.5362C6.94626 59.2355 6.71452 59.0166 6.41947 58.8782C6.19251 58.7724 5.85923 58.7219 5.41845 58.7267L5.05173 58.7303H5.05292Z" fill="black"/>
<path d="M8.12044 56.3089L0 55.7147L0.0728666 54.7103L8.19331 55.3057L8.12044 56.3101V56.3089Z" fill="black"/>
<path d="M8.68314 50.7588L0.750244 48.9136L1.44188 45.9004C1.56372 45.37 1.68198 44.9706 1.79666 44.7024C1.95195 44.3259 2.15024 44.0252 2.39392 43.8026C2.63761 43.5801 2.94102 43.4261 3.30655 43.3407C3.67207 43.2553 4.05074 43.2589 4.44494 43.3504C5.11985 43.5067 5.64067 43.8568 6.00858 44.3968C6.3765 44.9381 6.43145 45.7729 6.17223 46.9024L5.70278 48.9509L8.92802 49.7015L8.68553 50.7588H8.68314ZM4.76388 48.7344L5.23811 46.6691C5.39459 45.9858 5.38026 45.4722 5.19272 45.1258C5.00637 44.7806 4.68384 44.5544 4.22514 44.4474C3.89306 44.3704 3.58965 44.3884 3.31491 44.5027C3.04017 44.617 2.83232 44.8034 2.69375 45.0608C2.60655 45.228 2.5074 45.5516 2.39751 46.0304L1.92925 48.074L4.76507 48.7332L4.76388 48.7344Z" fill="black"/>
<path d="M11.0912 39.8331C11.2561 40.2938 11.3397 40.7076 11.3409 41.0769C11.3421 41.4462 11.274 41.8155 11.1366 42.1848C10.9097 42.7958 10.5871 43.2096 10.1679 43.4261C9.74977 43.6426 9.30899 43.6643 8.8479 43.4899C8.57793 43.3876 8.35336 43.2325 8.17538 43.0244C7.99739 42.8163 7.87913 42.5865 7.81821 42.3339C7.75729 42.0825 7.73937 41.8179 7.76326 41.54C7.78357 41.3367 7.84091 41.0396 7.93408 40.6487C8.1264 39.8536 8.22793 39.2522 8.2363 38.8456C8.10968 38.7939 8.02845 38.7614 7.99381 38.7482C7.61275 38.6038 7.31053 38.5918 7.08835 38.7109C6.78733 38.872 6.54842 39.1896 6.37163 39.6647C6.20678 40.1086 6.16259 40.4647 6.23784 40.7341C6.3131 41.0035 6.52811 41.2622 6.88289 41.5112L6.41583 42.3856C6.05508 42.1547 5.78989 41.8973 5.62027 41.6134C5.45064 41.3307 5.36822 40.9831 5.373 40.5705C5.37778 40.1579 5.46976 39.7129 5.64774 39.2341C5.82453 38.759 6.02283 38.3945 6.24501 38.1395C6.466 37.8845 6.68699 37.7185 6.90678 37.6427C7.12657 37.5669 7.37504 37.5489 7.65336 37.5898C7.82418 37.6187 8.11804 37.7113 8.53374 37.8676L9.78202 38.338C10.6528 38.6664 11.2107 38.854 11.4556 38.8997C11.7016 38.9466 11.9513 38.9502 12.2069 38.9117L11.8414 39.8969C11.6109 39.921 11.36 39.8981 11.09 39.8283L11.0912 39.8331ZM8.97213 39.1234C8.98407 39.518 8.91121 40.0761 8.75353 40.7966C8.66513 41.2056 8.62571 41.5027 8.63527 41.6892C8.64483 41.8756 8.69978 42.038 8.80131 42.1751C8.90285 42.3123 9.03424 42.4121 9.1967 42.4735C9.44636 42.5673 9.69004 42.5504 9.92656 42.4229C10.1631 42.2954 10.3506 42.0488 10.4868 41.682C10.6218 41.3187 10.6636 40.9663 10.6098 40.6234C10.5573 40.2806 10.4187 39.9919 10.1941 39.7562C10.0197 39.5757 9.72708 39.4073 9.31496 39.251L8.97213 39.121V39.1234Z" fill="black"/>
<path d="M12.6859 37.9855L7.38574 35.3801L7.77994 34.5658L8.58386 34.9603C8.30912 34.5682 8.15383 34.2542 8.11919 34.0197C8.08454 33.7851 8.11919 33.5626 8.22072 33.3509C8.36884 33.0465 8.61492 32.7831 8.96133 32.563L9.64341 33.2847C9.40689 33.4423 9.23488 33.6311 9.12737 33.8525C9.03181 34.0497 9.00434 34.2566 9.04614 34.4719C9.08795 34.6872 9.19785 34.8809 9.37464 35.0505C9.6458 35.3079 9.97071 35.5305 10.3494 35.7169L13.1243 37.081L12.6859 37.9855Z" fill="black"/>
<path d="M14.6534 32.3368L15.4919 32.652C15.4035 32.9275 15.3044 33.162 15.1933 33.3569C15.0129 33.6744 14.823 33.891 14.6247 34.0088C14.4264 34.1267 14.2245 34.1736 14.0227 34.1508C13.8208 34.1279 13.4588 33.9667 12.938 33.6672L9.99349 31.9688L9.62916 32.6099L8.95425 32.2214L9.31858 31.5802L8.05118 30.8489L8.0249 29.6797L9.81312 30.7106L10.3124 29.8325L10.9873 30.221L10.488 31.0991L13.4803 32.8252C13.7276 32.9684 13.896 33.0441 13.9832 33.0538C14.0716 33.0634 14.1564 33.0465 14.2377 33.0008C14.3189 32.9551 14.3965 32.8685 14.4706 32.7386C14.5256 32.6412 14.5877 32.5077 14.6546 32.3356L14.6534 32.3368Z" fill="black"/>
<path d="M15.8192 32.0758L10.9861 28.6717L11.5021 27.9295L12.189 28.4131C11.9059 27.6817 11.999 26.978 12.4685 26.3032C12.6728 26.0097 12.9117 25.7776 13.1876 25.6056C13.4635 25.4335 13.7287 25.3457 13.9832 25.3433C14.2376 25.3409 14.4992 25.3975 14.7668 25.5129C14.94 25.5899 15.2159 25.7607 15.5946 26.0278L18.5666 28.1208L17.9932 28.9459L15.0535 26.8758C14.7202 26.64 14.4478 26.4969 14.2376 26.4452C14.0274 26.3922 13.8171 26.4139 13.6045 26.5077C13.3919 26.6015 13.2103 26.7591 13.0574 26.9792C12.8137 27.3305 12.7134 27.7118 12.7576 28.1232C12.8018 28.5346 13.1339 28.958 13.7526 29.3934L16.3925 31.2531L15.8192 32.0782V32.0758Z" fill="black"/>
<path d="M20.6524 22.7884L21.4372 22.0992C21.7776 22.6272 21.9258 23.1673 21.8792 23.7219C21.8338 24.2764 21.5817 24.8105 21.1254 25.3241C20.5497 25.9712 19.8951 26.3056 19.1628 26.3273C18.4294 26.3489 17.7067 26.0386 16.9923 25.3939C16.2529 24.7275 15.8504 24.0178 15.7835 23.2672C15.7166 22.5166 15.9543 21.8346 16.4978 21.2235C17.0246 20.6317 17.6541 20.3286 18.3876 20.3153C19.121 20.3009 19.8509 20.6209 20.5759 21.2752C20.6201 21.3149 20.6846 21.3763 20.7707 21.4581L17.8357 24.7575C18.3434 25.1653 18.8343 25.3614 19.3109 25.3445C19.7876 25.3289 20.1901 25.1364 20.5186 24.7672C20.7635 24.4917 20.8997 24.1934 20.9295 23.8698C20.9594 23.5462 20.8674 23.1854 20.6536 22.7884H20.6524ZM17.2587 24.1645L19.4567 21.6938C19.0577 21.3943 18.6958 21.2379 18.3732 21.2271C17.8739 21.2067 17.4546 21.3871 17.1166 21.7684C16.8108 22.1124 16.6674 22.5058 16.6877 22.946C16.708 23.3875 16.898 23.7928 17.2599 24.1633L17.2587 24.1645Z" fill="black"/>
<path d="M23.5525 22.5791L19.5532 18.2139L20.215 17.5992L20.8206 18.2608C20.7059 17.7941 20.6749 17.4453 20.7274 17.2143C20.78 16.9834 20.8923 16.7873 21.0631 16.6285C21.3104 16.3988 21.6353 16.2436 22.0367 16.1654L22.4117 17.0868C22.1346 17.147 21.9053 17.26 21.7261 17.4272C21.566 17.5764 21.4657 17.7592 21.4274 17.9745C21.388 18.1911 21.4215 18.41 21.5254 18.6337C21.6843 18.9729 21.9076 19.2977 22.1931 19.6104L24.2872 21.8959L23.5525 22.5779V22.5791Z" fill="black"/>
<path d="M24.8378 18.9585L25.5259 18.2271C25.8114 18.5086 26.1196 18.6554 26.4493 18.6686C26.779 18.6806 27.1242 18.5471 27.4849 18.2668C27.8481 17.9842 28.0607 17.7003 28.1228 17.4152C28.1849 17.1301 28.1383 16.8859 27.9842 16.6851C27.8469 16.5046 27.6605 16.424 27.4252 16.4409C27.2627 16.4541 26.9235 16.5732 26.4087 16.7993C25.7146 17.1025 25.2153 17.2877 24.9083 17.3539C24.6013 17.42 24.317 17.4032 24.0554 17.3033C23.7938 17.2035 23.5752 17.0375 23.3984 16.8077C23.2384 16.5984 23.1368 16.3675 23.095 16.1149C23.0532 15.8623 23.0699 15.6133 23.1428 15.3679C23.1954 15.1815 23.3041 14.9734 23.4677 14.7448C23.6314 14.5163 23.8356 14.307 24.0781 14.1181C24.4448 13.833 24.8068 13.637 25.1651 13.5275C25.5235 13.4181 25.8389 13.4036 26.1088 13.483C26.38 13.5624 26.6571 13.7344 26.939 13.999L26.2462 14.7063C26.0252 14.4922 25.7791 14.3816 25.5068 14.3767C25.2344 14.3719 24.9442 14.4886 24.636 14.728C24.2728 15.0107 24.059 15.2729 23.9969 15.5147C23.9348 15.7564 23.9646 15.9585 24.0889 16.1209C24.1677 16.2244 24.2716 16.2917 24.3994 16.3254C24.5297 16.3603 24.6849 16.3531 24.8653 16.3025C24.9669 16.2701 25.2523 16.157 25.7206 15.9633C26.3955 15.6795 26.8805 15.499 27.1755 15.4232C27.4706 15.3475 27.7513 15.3523 28.0177 15.4365C28.2841 15.5219 28.5206 15.6999 28.7296 15.9718C28.9327 16.2376 29.0474 16.5479 29.0737 16.9016C29.0999 17.2552 29.0163 17.6101 28.8252 17.9637C28.6329 18.3174 28.3545 18.6373 27.9878 18.9212C27.381 19.3927 26.8208 19.6249 26.3083 19.6177C25.7959 19.6104 25.3049 19.3927 24.8343 18.9609L24.8378 18.9585Z" fill="black"/>
<path d="M30.5969 16.7933L26.3826 9.77936L27.2379 9.25851L28.7501 11.7749C28.8696 11.0664 29.2327 10.5263 29.8419 10.1559C30.2158 9.92851 30.5849 9.80462 30.9493 9.78537C31.3136 9.76613 31.6337 9.85033 31.9097 10.0392C32.1856 10.228 32.4735 10.5721 32.7721 11.0688L34.7073 14.2889L33.852 14.8098L31.9168 11.5897C31.6576 11.1591 31.3769 10.9016 31.0735 10.8186C30.7701 10.7356 30.4488 10.797 30.1107 11.0039C29.8575 11.1579 29.6592 11.3696 29.5146 11.6378C29.3713 11.906 29.3199 12.1827 29.3605 12.4666C29.4012 12.7505 29.5421 13.0921 29.781 13.4914L31.451 16.2713L30.5957 16.7921L30.5969 16.7933Z" fill="black"/>
<path d="M32.8331 7.38925L32.323 6.35238L33.2189 5.90491L33.729 6.94178L32.8331 7.38925ZM35.9389 13.6983L33.3192 8.37681L34.2151 7.92934L36.8348 13.2509L35.9389 13.6983Z" fill="black"/>
<path d="M38.8714 14.7388L35.8755 7.09695L36.7224 6.76015L37.0043 7.47826C37.0939 7.1186 37.2373 6.81788 37.4332 6.57731C37.6291 6.33673 37.9062 6.14548 38.2646 6.00354C38.7328 5.81709 39.1939 5.77499 39.6466 5.87483C40.0994 5.97467 40.5043 6.21043 40.8603 6.57971C41.2163 6.949 41.497 7.39767 41.7036 7.92453C41.9258 8.48988 42.0238 9.03839 41.9999 9.57126C41.976 10.1041 41.8195 10.5672 41.5292 10.9606C41.2401 11.3539 40.883 11.6354 40.4601 11.8038C40.1507 11.9265 39.8461 11.9722 39.5487 11.9373C39.2512 11.9036 38.9837 11.817 38.746 11.6787L39.8007 14.3683L38.8714 14.7376V14.7388ZM37.8118 9.55562C38.0902 10.2665 38.439 10.7356 38.8582 10.9618C39.2775 11.1879 39.6896 11.2204 40.0958 11.0592C40.5091 10.8944 40.7934 10.5781 40.9499 10.1089C41.1064 9.63982 41.0395 9.03598 40.7504 8.29742C40.4744 7.59374 40.1244 7.12341 39.6992 6.88765C39.2739 6.65189 38.8618 6.61339 38.4628 6.77217C38.0663 6.92975 37.7891 7.25573 37.6303 7.74891C37.4714 8.24329 37.5323 8.84593 37.8106 9.55562H37.8118Z" fill="black"/>
<path d="M45.7305 6.77338C45.5178 5.6944 45.6588 4.83555 46.1521 4.19803C46.5642 3.66756 47.1281 3.33075 47.8436 3.18761C48.6391 3.02883 49.3403 3.16115 49.9484 3.58576C50.5564 4.00917 50.9518 4.68399 51.1333 5.6102C51.2815 6.35959 51.285 6.97185 51.1465 7.44578C51.0079 7.91972 50.7487 8.31907 50.3688 8.64144C49.989 8.96381 49.547 9.17672 49.0417 9.27656C48.2318 9.43774 47.5258 9.30783 46.9238 8.88442C46.3217 8.46101 45.924 7.75733 45.7293 6.77338H45.7305ZM46.7386 6.57129C46.8856 7.31708 47.1567 7.84393 47.5533 8.15067C47.9499 8.4574 48.3931 8.56205 48.8828 8.46341C49.369 8.36598 49.7381 8.09894 49.9878 7.6611C50.2374 7.22325 50.2876 6.62302 50.1371 5.85799C49.9949 5.13747 49.725 4.62384 49.3272 4.31831C48.9294 4.01278 48.4886 3.90693 48.006 4.00316C47.5163 4.10059 47.1448 4.36643 46.8951 4.80066C46.6443 5.2349 46.5929 5.82431 46.7398 6.57009L46.7386 6.57129Z" fill="black"/>
<path d="M52.6623 8.49469L52.2131 2.57294L53.1102 2.50438L53.1747 3.34639C53.557 2.66316 54.1566 2.28906 54.9725 2.22651C55.3273 2.19885 55.657 2.23854 55.964 2.34319C56.271 2.44905 56.5063 2.59941 56.6699 2.79668C56.8336 2.99395 56.9554 3.23332 57.0367 3.51479C57.088 3.69763 57.131 4.0212 57.1657 4.48671L57.4416 8.12781L56.4454 8.20479L56.1718 4.60219C56.1408 4.19321 56.0786 3.89009 55.9855 3.69402C55.8923 3.49795 55.743 3.34639 55.5363 3.24054C55.3297 3.13468 55.0932 3.09258 54.828 3.11303C54.4039 3.14551 54.0467 3.3091 53.7601 3.60501C53.4722 3.89971 53.3575 4.42657 53.4148 5.18558L53.6597 8.42011L52.6635 8.49709L52.6623 8.49469Z" fill="black"/>
<path d="M61.8804 8.13984L62.8539 0L63.9517 0.133519L67.4326 7.03921L68.1971 0.648349L69.2232 0.772245L68.2496 8.91209L67.1518 8.77857L63.671 1.86686L62.9065 8.26254L61.8804 8.13864V8.13984Z" fill="black"/>
<path d="M73.373 10.2184L73.5927 9.374C72.98 9.90567 72.2919 10.0705 71.5286 9.86958C71.1917 9.78057 70.8943 9.63262 70.6363 9.42572C70.3783 9.21883 70.2039 8.9987 70.1131 8.76414C70.0235 8.53078 69.9865 8.26375 70.0032 7.96303C70.0139 7.76215 70.0725 7.45301 70.1812 7.03922L71.1081 3.47992L72.0745 3.73493L71.2443 6.92134C71.1117 7.43016 71.0424 7.77779 71.0352 7.96423C71.0293 8.23608 71.1057 8.47184 71.2646 8.66911C71.4235 8.86759 71.648 9.00472 71.9383 9.0805C72.2286 9.15748 72.5201 9.15387 72.8139 9.07208C73.1066 8.99028 73.3407 8.83391 73.5127 8.60296C73.6859 8.37321 73.8364 8.01355 73.9631 7.52278L74.7646 4.44462L75.731 4.69963L74.2342 10.4446L73.3694 10.216L73.373 10.2184Z" fill="black"/>
<path d="M77.904 10.8259L77.7404 11.7112C77.4561 11.6715 77.2088 11.6137 76.9998 11.538C76.6581 11.4141 76.4132 11.2637 76.2639 11.0869C76.1146 10.9101 76.0334 10.7188 76.0202 10.5143C76.0071 10.3098 76.1015 9.92251 76.3057 9.35475L77.4561 6.14067L76.7668 5.89047L77.0308 5.15432L77.7201 5.40451L78.2158 4.02121L79.3542 3.79266L78.6554 5.74493L79.6015 6.08775L79.3375 6.8239L78.3914 6.48109L77.2219 9.74809C77.1252 10.0187 77.0798 10.198 77.0858 10.287C77.0905 10.376 77.1228 10.4578 77.1813 10.53C77.2399 10.6033 77.339 10.6647 77.4788 10.7152C77.5827 10.7537 77.7248 10.791 77.9052 10.8283L77.904 10.8259Z" fill="black"/>
<path d="M78.3769 11.9914L80.7373 6.54845L81.5615 6.91051L81.2032 7.73568C81.5806 7.44218 81.8852 7.27258 82.117 7.22807C82.3487 7.18356 82.5709 7.20762 82.7847 7.30265C83.0929 7.43857 83.3641 7.67554 83.597 8.01355L82.9102 8.73046C82.7441 8.4983 82.5494 8.33351 82.3248 8.23487C82.1242 8.14707 81.9187 8.12902 81.7061 8.17954C81.4934 8.23127 81.3071 8.34915 81.1458 8.53439C80.9021 8.81827 80.6955 9.15387 80.5259 9.5436L79.2907 12.3932L78.3745 11.9902L78.3769 11.9914Z" fill="black"/>
<path d="M81.7324 13.5323L84.4118 8.24208L85.3029 8.69917L82.6235 13.9894L81.7336 13.5323H81.7324ZM84.9087 7.26054L85.4307 6.22968L86.3218 6.68677L85.7998 7.71763L84.9099 7.26054H84.9087Z" fill="black"/>
<path d="M88.2761 15.1117L89.086 15.7697C88.6297 16.1991 88.1256 16.4397 87.5761 16.4902C87.0254 16.5407 86.4604 16.3843 85.8787 16.0211C85.1464 15.5628 84.7056 14.9722 84.5563 14.2492C84.407 13.5263 84.5862 12.7553 85.0915 11.9337C85.6147 11.0845 86.2382 10.5624 86.9621 10.3652C87.6848 10.1679 88.3931 10.2858 89.0848 10.7188C89.7549 11.1374 90.1599 11.71 90.302 12.4341C90.443 13.1594 90.2566 13.9377 89.743 14.7713C89.7119 14.8218 89.6629 14.8964 89.5972 14.9962L85.8607 12.659C85.5502 13.2328 85.4438 13.7549 85.5418 14.224C85.6397 14.6931 85.8978 15.0588 86.317 15.321C86.6288 15.5159 86.9454 15.6001 87.2667 15.5724C87.588 15.5459 87.9249 15.392 88.2773 15.1117H88.2761ZM86.3409 11.9854L89.1385 13.7356C89.3631 13.2881 89.4515 12.902 89.4073 12.5796C89.3404 12.0817 89.0908 11.6967 88.6595 11.4273C88.2701 11.1831 87.8604 11.1097 87.4327 11.206C87.0051 11.3022 86.6408 11.562 86.3409 11.9842V11.9854Z" fill="black"/>
<path d="M88.9785 17.8927L92.6696 13.2605L93.3708 13.827L92.8464 14.485C93.5894 14.2492 94.2798 14.3888 94.9189 14.9048C95.196 15.1285 95.4111 15.3847 95.564 15.6734C95.7169 15.9621 95.7861 16.234 95.7718 16.4902C95.7575 16.7464 95.6846 17.005 95.552 17.266C95.4648 17.4344 95.2773 17.7015 94.987 18.0647L92.7174 20.9132L91.9374 20.2828L94.1831 17.4645C94.4375 17.1446 94.5976 16.8811 94.6633 16.673C94.729 16.4661 94.7218 16.252 94.643 16.0331C94.5641 15.8142 94.4196 15.6205 94.2117 15.4521C93.8797 15.1839 93.5082 15.0588 93.0984 15.0756C92.6887 15.0925 92.2467 15.398 91.7737 15.991L89.7573 18.5206L88.9773 17.8903L88.9785 17.8927Z" fill="black"/>
<path d="M95.8851 22.7451L95.3775 23.4873C95.1338 23.3333 94.9319 23.1794 94.7718 23.0242C94.5102 22.7704 94.3478 22.5334 94.2833 22.3097C94.2188 22.0872 94.2223 21.8791 94.2928 21.6866C94.3633 21.4941 94.607 21.1802 95.0227 20.7448L97.3747 18.2825L96.8467 17.7712L97.3855 17.2071L97.9135 17.7183L98.9264 16.6586L100.059 16.9172L98.6302 18.4124L99.3541 19.1137L98.8153 19.6778L98.0914 18.9765L95.7 21.4797C95.5017 21.6866 95.3882 21.8321 95.3572 21.9151C95.3261 21.9981 95.3225 22.086 95.3464 22.1762C95.3703 22.2664 95.436 22.3638 95.5423 22.4673C95.6223 22.5442 95.737 22.6381 95.8851 22.7451Z" fill="black"/>
<path d="M97.9887 26.2034L104.578 21.3871L105.53 22.709L101.996 27.6889C101.667 28.1508 101.417 28.4949 101.25 28.7186C101.544 28.6188 101.981 28.4792 102.56 28.3L108.289 26.5378L109.141 27.719L102.552 32.5353L101.941 31.6885L107.457 27.6577L100.552 29.7603L99.9812 28.9688L104.207 22.9496L98.598 27.049L97.9875 26.2022L97.9887 26.2034Z" fill="black"/>
<path d="M105.579 36.8356C105.128 36.6503 104.768 36.435 104.495 36.1896C104.223 35.9443 103.996 35.6447 103.816 35.2947C103.517 34.7149 103.429 34.1977 103.549 33.7394C103.67 33.2811 103.948 32.9383 104.385 32.7097C104.642 32.5762 104.906 32.5125 105.179 32.5185C105.451 32.5245 105.701 32.5906 105.926 32.7133C106.152 32.836 106.36 32.9996 106.549 33.2041C106.685 33.3557 106.865 33.5974 107.091 33.9282C107.549 34.6055 107.924 35.083 108.218 35.3621C108.341 35.3019 108.419 35.2634 108.452 35.2454C108.814 35.0565 109.024 34.8388 109.085 34.5934C109.167 34.2602 109.093 33.8681 108.861 33.4182C108.645 32.9984 108.412 32.7266 108.163 32.6027C107.913 32.4788 107.578 32.4655 107.157 32.5642L106.825 31.6283C107.237 31.5141 107.605 31.4876 107.926 31.5502C108.249 31.6127 108.559 31.7835 108.86 32.0638C109.161 32.3441 109.428 32.7097 109.662 33.1632C109.893 33.6131 110.03 34.0064 110.069 34.3432C110.108 34.6788 110.083 34.9555 109.991 35.1708C109.899 35.3861 109.747 35.5846 109.53 35.7638C109.394 35.8721 109.129 36.0297 108.735 36.2366L107.552 36.8548C106.727 37.2855 106.215 37.5778 106.016 37.7293C105.816 37.8821 105.647 38.0661 105.504 38.2838L105.022 37.3504C105.158 37.1616 105.343 36.9896 105.575 36.8344L105.579 36.8356ZM107.522 35.7253C107.224 35.4691 106.862 35.0421 106.435 34.4407C106.193 34.1015 106 33.8717 105.856 33.7538C105.711 33.6359 105.555 33.5686 105.386 33.5517C105.217 33.5349 105.056 33.5674 104.901 33.648C104.665 33.7719 104.514 33.9643 104.449 34.2278C104.384 34.49 104.442 34.7955 104.62 35.1431C104.796 35.4872 105.029 35.7542 105.317 35.9443C105.605 36.1343 105.911 36.2245 106.236 36.2137C106.485 36.2053 106.807 36.0982 107.197 35.8937L107.522 35.7241V35.7253Z" fill="black"/>
<path d="M105.898 39.2113L111.421 37.1279L111.737 37.9759L110.951 38.2718C111.709 38.451 112.232 38.9274 112.519 39.6984C112.643 40.034 112.698 40.3648 112.684 40.6908C112.668 41.0168 112.589 41.2862 112.447 41.4991C112.305 41.712 112.11 41.8961 111.864 42.0536C111.704 42.1535 111.407 42.2858 110.973 42.4494L107.577 43.7305L107.227 42.7874L110.587 41.5208C110.969 41.3764 111.241 41.2333 111.402 41.0877C111.563 40.9434 111.666 40.7558 111.709 40.5272C111.752 40.2975 111.727 40.0581 111.634 39.8067C111.485 39.4049 111.229 39.1066 110.868 38.9105C110.506 38.7145 109.972 38.7494 109.265 39.0164L106.249 40.1543L105.899 39.2113H105.898Z" fill="black"/>
<path d="M109.578 48.5792C109.185 48.2918 108.885 47.9958 108.679 47.6915C108.472 47.3872 108.323 47.0432 108.229 46.6595C108.077 46.0255 108.114 45.5011 108.338 45.0849C108.564 44.6687 108.916 44.4029 109.394 44.2862C109.675 44.2176 109.947 44.2188 110.21 44.291C110.473 44.3632 110.7 44.4859 110.891 44.6603C111.081 44.8347 111.244 45.0428 111.378 45.2858C111.475 45.465 111.593 45.7429 111.733 46.1194C112.017 46.8868 112.268 47.4401 112.488 47.7817C112.622 47.7529 112.707 47.7336 112.742 47.7252C113.138 47.629 113.395 47.4678 113.512 47.2441C113.671 46.9409 113.691 46.5428 113.573 46.0496C113.461 45.5889 113.3 45.2689 113.086 45.0897C112.873 44.9105 112.551 44.8167 112.119 44.8106L112.019 43.8231C112.446 43.8111 112.809 43.8736 113.107 44.0119C113.405 44.1503 113.667 44.3908 113.893 44.7349C114.118 45.0789 114.291 45.4987 114.411 45.9955C114.529 46.4886 114.569 46.9024 114.528 47.2392C114.488 47.576 114.397 47.8371 114.257 48.0247C114.117 48.2124 113.921 48.3675 113.669 48.4902C113.512 48.5636 113.217 48.6526 112.785 48.7585L111.491 49.0748C110.587 49.295 110.021 49.4561 109.792 49.556C109.563 49.6558 109.353 49.7941 109.164 49.971L108.917 48.9485C109.094 48.7982 109.314 48.6755 109.577 48.5804L109.578 48.5792ZM111.728 47.9682C111.499 47.6482 111.248 47.1454 110.977 46.4598C110.823 46.0712 110.689 45.803 110.577 45.6539C110.464 45.5047 110.328 45.4012 110.168 45.3447C110.008 45.2882 109.843 45.2798 109.674 45.3219C109.414 45.3856 109.222 45.5372 109.098 45.7765C108.972 46.0159 108.956 46.3263 109.048 46.7064C109.138 47.0829 109.301 47.398 109.535 47.6518C109.769 47.9056 110.045 48.0656 110.363 48.1342C110.608 48.1859 110.945 48.1594 111.372 48.0548L111.728 47.9682Z" fill="black"/>
<path d="M108.82 50.8394L108.791 51.8282C108.498 51.904 108.294 52.0435 108.181 52.2444C108.026 52.5138 107.974 52.8639 108.025 53.2933C108.08 53.7564 108.214 54.1028 108.428 54.3326C108.642 54.5623 108.919 54.7019 109.26 54.7512C109.468 54.7788 109.896 54.7512 110.543 54.6706C109.981 54.2953 109.661 53.7817 109.584 53.1297C109.489 52.319 109.705 51.6562 110.233 51.1426C110.761 50.6289 111.432 50.3234 112.244 50.226C112.803 50.1586 113.33 50.1995 113.827 50.3463C114.324 50.493 114.723 50.7444 115.026 51.1005C115.33 51.4565 115.511 51.8956 115.574 52.4176C115.656 53.1141 115.445 53.7203 114.938 54.24L115.644 54.1558L115.753 55.0772L110.69 55.6834C109.779 55.7929 109.122 55.776 108.719 55.6353C108.317 55.4933 107.981 55.2335 107.712 54.8546C107.444 54.4757 107.275 53.9898 107.205 53.3979C107.121 52.6943 107.212 52.1073 107.475 51.6369C107.737 51.1666 108.187 50.9008 108.821 50.8394H108.82ZM112.436 51.246C111.667 51.3386 111.125 51.5588 110.807 51.9088C110.491 52.2588 110.359 52.6642 110.414 53.1273C110.468 53.5868 110.689 53.9501 111.077 54.2195C111.466 54.4877 112.034 54.578 112.784 54.4877C113.501 54.4023 114.023 54.1774 114.349 53.8129C114.675 53.4485 114.811 53.0407 114.759 52.5896C114.706 52.1458 114.483 51.7897 114.088 51.5215C113.692 51.2532 113.141 51.1618 112.436 51.246Z" fill="black"/>
<path d="M111.867 61.1348L111.738 62.1753C111.135 62.0105 110.666 61.7062 110.333 61.2623C110 60.8185 109.834 60.2519 109.835 59.5615C109.835 58.693 110.101 58.0038 110.633 57.4961C111.164 56.9873 111.91 56.7335 112.869 56.7347C113.862 56.7347 114.631 56.9933 115.179 57.5082C115.726 58.023 116 58.6906 116 59.511C116 60.3048 115.73 60.9532 115.194 61.456C114.656 61.9588 113.901 62.2102 112.928 62.209C112.868 62.209 112.779 62.2066 112.661 62.203L112.665 57.774C112.017 57.8113 111.52 57.9953 111.176 58.3261C110.832 58.6581 110.659 59.0719 110.659 59.5675C110.659 59.9368 110.755 60.2519 110.947 60.5129C111.139 60.774 111.446 60.9809 111.868 61.1348H111.867ZM113.485 57.8305L113.483 61.1469C113.979 61.1024 114.352 60.9761 114.6 60.768C114.986 60.448 115.178 60.0318 115.178 59.5218C115.178 59.0599 115.025 58.6701 114.718 58.355C114.411 58.0398 114 57.8654 113.485 57.8305Z" fill="black"/>
<path d="M109.992 63.1629L115.824 64.0458L115.692 64.9359L114.874 64.812C115.132 65.0394 115.325 65.3196 115.453 65.6516C115.581 65.9836 115.617 66.3457 115.558 66.7366C115.494 67.1721 115.35 67.5149 115.129 67.7663C114.908 68.0177 114.629 68.1752 114.29 68.2414C114.901 68.8092 115.151 69.4647 115.04 70.2105C114.952 70.7927 114.726 71.2173 114.359 71.4819C113.992 71.7466 113.475 71.8284 112.808 71.7285L108.804 71.1223L108.952 70.1323L112.627 70.688C113.022 70.7482 113.311 70.759 113.495 70.7205C113.679 70.682 113.836 70.5858 113.968 70.433C114.1 70.2791 114.182 70.089 114.217 69.8605C114.279 69.4479 114.193 69.0834 113.961 68.7695C113.729 68.4555 113.312 68.2534 112.713 68.162L109.324 67.6496L109.472 66.6548L113.261 67.2286C113.701 67.2947 114.042 67.2635 114.286 67.1348C114.53 67.0061 114.679 66.7571 114.734 66.3878C114.776 66.1075 114.741 65.8381 114.63 65.577C114.519 65.316 114.33 65.1127 114.065 64.9624C113.799 64.8132 113.401 64.6977 112.869 64.6171L109.843 64.1589L109.992 63.1641V63.1629Z" fill="black"/>
<path d="M109.054 76.7229L108.628 77.6791C108.099 77.3435 107.74 76.9153 107.551 76.3921C107.362 75.8688 107.367 75.2782 107.569 74.619C107.822 73.7891 108.277 73.2081 108.933 72.8797C109.589 72.5513 110.376 72.5272 111.292 72.8099C112.241 73.1034 112.902 73.5761 113.276 74.2305C113.65 74.8837 113.718 75.603 113.478 76.3873C113.247 77.1463 112.801 77.6876 112.142 78.0099C111.482 78.3323 110.687 78.3503 109.755 78.0617C109.699 78.0436 109.614 78.0159 109.502 77.9775L110.793 73.7433C110.162 73.587 109.634 73.617 109.209 73.8324C108.783 74.0477 108.498 74.3929 108.354 74.8668C108.246 75.2193 108.246 75.5489 108.354 75.8556C108.461 76.1623 108.695 76.451 109.054 76.7217V76.7229ZM111.561 74.0405L110.595 77.21C111.082 77.3135 111.475 77.3026 111.772 77.1763C112.234 76.9839 112.539 76.6435 112.689 76.1551C112.824 75.7136 112.79 75.2963 112.588 74.9041C112.386 74.512 112.044 74.2245 111.562 74.0405H111.561Z" fill="black"/>
<path d="M106.561 78.1206L111.952 80.5287L111.587 81.3575L110.82 81.0147C111.237 81.6775 111.279 82.386 110.948 83.139C110.804 83.4662 110.614 83.7404 110.376 83.963C110.138 84.1855 109.895 84.3226 109.645 84.3743C109.395 84.4261 109.128 84.4212 108.843 84.3587C108.659 84.3166 108.356 84.2023 107.932 84.0135L104.617 82.5327L105.022 81.6125L108.301 83.0776C108.674 83.2436 108.968 83.3326 109.184 83.3435C109.4 83.3543 109.603 83.293 109.793 83.1594C109.983 83.0259 110.132 82.8371 110.241 82.5917C110.414 82.1995 110.439 81.8062 110.318 81.4117C110.196 81.0171 109.79 80.6647 109.099 80.3567L106.155 79.0408L106.56 78.1206H106.561Z" fill="black"/>
<path d="M103.67 86.0824L102.828 85.7769C102.913 85.5002 103.009 85.2645 103.117 85.0684C103.294 84.7484 103.48 84.5295 103.677 84.4092C103.874 84.2889 104.075 84.2396 104.278 84.2589C104.481 84.2793 104.844 84.4357 105.369 84.7292L108.333 86.3904L108.689 85.7456L109.369 86.1257L109.013 86.7705L110.29 87.485L110.331 88.653L108.531 87.6449L108.042 88.5291L107.362 88.149L107.851 87.2648L104.837 85.5772C104.587 85.4377 104.419 85.3631 104.331 85.3547C104.242 85.3463 104.157 85.3643 104.077 85.4112C103.996 85.4581 103.92 85.5459 103.848 85.6771C103.794 85.7745 103.735 85.9092 103.669 86.0824H103.67Z" fill="black"/>
<path d="M49.8096 70.5798C51.7089 66.6139 51.3327 60.9015 47.8136 57.9917C43.8382 54.7043 38.5523 52.8675 33.3681 52.5704C32.8855 52.5427 30.3638 52.6786 30.1978 52.4537C30.3734 51.6694 31.4962 51.4757 30.6804 50.7047C29.2792 49.3803 28.3797 51.323 27.964 52.4621C25.2775 53.3234 22.8645 53.6674 20.5854 55.4645C15.6304 59.3714 15.3676 68.5577 16.8775 74.2281C20.1099 86.3639 28.9244 96.6653 40.5926 101.229C41.8743 101.731 43.0928 102.012 44.4127 102.373C44.5477 102.249 43.9301 101.721 43.8358 101.572C39.5916 94.8141 38.3708 85.1959 43.5801 78.6198C45.8127 75.8014 48.1516 74.0428 49.8108 70.5798H49.8096Z" fill="#BBC797"/>
<path d="M102.588 54.5623C101.728 53.8178 100.644 53.8478 100.649 53.849C100.653 53.8538 100.975 54.9316 101.785 55.6401C102.597 56.3462 103.669 56.4749 103.672 56.4773C103.676 56.4821 103.449 55.3069 102.588 54.5635V54.5623Z" fill="#E08542"/>
<path d="M98.7927 52.5343C98.7927 52.5343 99.7914 53.25 100.73 53.2789C101.674 53.3053 102.231 52.5595 102.228 52.5559C102.233 52.5523 101.188 51.6887 100.227 51.7067C99.2741 51.7223 98.7951 52.5391 98.7927 52.5343Z" fill="#E08542"/>
<path d="M98.7915 52.5367C98.7915 52.5367 98.371 53.3739 98.7019 54.2688C99.0328 55.1578 99.9789 55.8422 99.9801 55.8494C99.9777 55.8494 100.506 55.0627 100.182 54.1257C99.8558 53.1838 98.7891 52.5295 98.7903 52.5367H98.7915Z" fill="#E08542"/>
<path d="M99.7542 50.7889C99.7542 50.7889 98.6648 50.0383 97.7235 50.1514C96.7881 50.2621 96.3808 51.1161 96.3784 51.1125C96.3832 51.1101 97.4153 51.7211 98.3398 51.655C99.2692 51.5864 99.7577 50.7937 99.7554 50.7901L99.7542 50.7889Z" fill="#E08542"/>
<path d="M96.3774 51.1137C96.3774 51.1137 96.0298 51.9834 96.424 52.835C96.8182 53.6806 97.7989 54.2592 97.8013 54.2652C97.7989 54.2664 98.2576 53.4364 97.867 52.5451C97.474 51.6478 96.375 51.1077 96.3774 51.1137Z" fill="#E08542"/>
<path d="M97.1871 49.2889C97.1871 49.2889 96.0571 48.6526 95.1397 48.8547C94.2282 49.0544 93.8962 49.9397 93.8926 49.9361C93.8962 49.9325 94.9605 50.4401 95.8636 50.2837C96.7714 50.1237 97.1895 49.2925 97.1871 49.2889Z" fill="#E08542"/>
<path d="M93.8926 49.9385C93.8926 49.9385 93.619 50.8346 94.0741 51.6393C94.528 52.4393 95.5362 52.9144 95.5386 52.9204C95.5362 52.9216 95.9233 52.0555 95.4693 51.2123C95.0142 50.3631 93.889 49.9337 93.8926 49.9385Z" fill="#E08542"/>
<path d="M94.5449 48.0524C94.5449 48.0524 93.3826 47.5291 92.4962 47.8154C91.6147 48.0993 91.3591 49.0099 91.3555 49.0063C91.3591 49.0027 92.4461 49.4068 93.3217 49.165C94.202 48.9209 94.5473 48.056 94.5449 48.0524Z" fill="#E08542"/>
<path d="M91.3555 49.0075C91.3555 49.0075 91.1584 49.9229 91.6696 50.6795C92.1797 51.4301 93.2082 51.8041 93.2106 51.8102C93.2082 51.8114 93.52 50.9164 93.0075 50.1225C92.4927 49.3238 91.3519 49.0015 91.3543 49.0075H91.3555Z" fill="#E08542"/>
<path d="M90.7307 48.2918C91.5777 47.967 91.8488 47.0756 91.8452 47.0732C91.8488 47.0696 90.6591 46.6607 89.8086 47.0263C88.964 47.3884 88.7848 48.317 88.7812 48.3146C88.7848 48.311 89.8874 48.6141 90.7295 48.293L90.7307 48.2918Z" fill="#E08542"/>
<path d="M88.7826 48.3158C88.7826 48.3158 88.6631 49.2444 89.2269 49.9493C89.7895 50.6494 90.8312 50.9248 90.8336 50.9297C90.8312 50.9309 91.0677 50.0131 90.4991 49.2733C89.9281 48.5275 88.779 48.311 88.7826 48.3158Z" fill="#E08542"/>
<path d="M87.0981 46.4838C86.2941 46.9193 86.195 47.8599 86.1914 47.8575C86.195 47.8539 87.3059 48.0572 88.1098 47.6614C88.9173 47.2621 89.112 46.3503 89.1085 46.3479C89.112 46.3443 87.9056 46.0448 87.0981 46.4838Z" fill="#E08542"/>
<path d="M86.1915 47.8587C86.1915 47.8587 86.1497 48.7946 86.7637 49.4453C87.3753 50.0925 88.4217 50.2705 88.4253 50.2753C88.4229 50.2765 88.5818 49.3431 87.9618 48.6574C87.3383 47.9682 86.1879 47.8539 86.1915 47.8587Z" fill="#E08542"/>
<path d="M83.8955 47.653C83.8955 47.653 83.8955 47.6422 83.8955 47.6374C84.2802 47.6314 84.9563 47.5857 85.4735 47.2657C86.2368 46.7966 86.3539 45.8728 86.3503 45.8704C86.3539 45.8656 85.139 45.6743 84.3781 46.1831C83.9146 46.4886 83.7307 46.9626 83.653 47.2813C73.8603 46.8363 64.4724 51.1402 58.6443 59.0695C58.8366 59.2006 59.0301 59.3329 59.2212 59.4664C64.9096 51.7428 74.0765 47.5412 83.6495 47.985C83.7211 48.3122 83.892 48.7982 84.2933 49.1614C84.9491 49.752 85.9955 49.8374 85.9991 49.8411C85.9967 49.8435 86.0768 48.8992 85.409 48.2713C84.9551 47.8455 84.2778 47.6963 83.8955 47.653Z" fill="#E08542"/>
<path d="M102.479 48.1366C101.402 47.4173 100.408 47.5893 100.41 47.5869C100.416 47.5893 101.151 48.7537 102.174 49.4694C103.202 50.1827 104.212 50.1863 104.216 50.1851C104.222 50.1875 103.56 48.8559 102.479 48.1378V48.1366Z" fill="#E08542"/>
<path d="M101.329 45.9341C101.332 45.9269 100.025 45.1342 99.1415 45.287C98.2647 45.4337 98.1357 46.3648 98.1321 46.3611C98.1357 46.3551 99.3744 47.0299 100.256 46.9457C101.143 46.8567 101.332 45.9389 101.329 45.9353V45.9341Z" fill="#E08542"/>
<path d="M98.1308 46.3623C98.1308 46.3623 98.0639 47.3078 98.7304 48.2569C99.397 49.1999 100.563 49.8916 100.566 49.8976C100.565 49.9012 100.762 48.9545 100.085 47.9489C99.4053 46.9385 98.1284 46.3563 98.132 46.3623H98.1308Z" fill="#E08542"/>
<path d="M98.3161 44.3584C98.3197 44.3523 96.9866 43.7076 96.1349 43.9482C95.2904 44.1827 95.2318 45.1138 95.2271 45.1102C95.2294 45.1041 96.4861 45.6406 97.3414 45.4638C98.2014 45.2822 98.3197 44.3608 98.3149 44.3572L98.3161 44.3584Z" fill="#E08542"/>
<path d="M95.228 45.1138C95.228 45.1138 95.2316 46.0532 95.9483 46.9157C96.6651 47.7733 97.8512 48.3254 97.8536 48.3314C97.8536 48.3351 97.979 47.386 97.2468 46.4706C96.5122 45.5504 95.2245 45.1077 95.228 45.1138Z" fill="#E08542"/>
<path d="M95.2641 43.1182C95.2665 43.1122 93.919 42.6118 93.1068 42.9342C92.2993 43.2505 92.3124 44.1767 92.3076 44.1743C92.31 44.1683 93.5738 44.5713 94.3945 44.3102C95.2199 44.0432 95.2689 43.1218 95.2641 43.1182Z" fill="#E08542"/>
<path d="M95.0993 47.0805C95.0993 47.0805 95.1542 46.1374 94.3742 45.3098C93.5918 44.4774 92.3029 44.1707 92.3076 44.1755C92.3076 44.1791 92.3805 45.1041 93.1414 45.8824C93.9023 46.6558 95.0969 47.0744 95.1005 47.0805H95.0993Z" fill="#E08542"/>
<path d="M91.4343 43.4634C92.2191 43.1182 92.1988 42.2004 92.194 42.198C92.1964 42.192 90.8442 41.8287 90.0761 42.2269C89.314 42.619 89.3952 43.5356 89.3904 43.5332C89.3928 43.5272 90.6542 43.8038 91.4343 43.4634Z" fill="#E08542"/>
<path d="M91.4892 44.4558C90.665 43.7112 89.3868 43.5308 89.3916 43.5356C89.3916 43.5392 89.5326 44.4498 90.3305 45.145C91.1285 45.8355 92.3218 46.1278 92.3254 46.1326C92.3254 46.1362 92.3111 45.1968 91.4892 44.4558Z" fill="#E08542"/>
<path d="M88.4874 42.9137C89.2268 42.4951 89.1372 41.5881 89.1324 41.5857C89.1348 41.5797 87.7886 41.3476 87.0707 41.8155C86.3575 42.2762 86.5081 43.1795 86.5021 43.1783C86.5033 43.1723 87.7528 43.3275 88.4874 42.9149V42.9137Z" fill="#E08542"/>
<path d="M87.5376 44.688C88.3654 45.2966 89.5492 45.4686 89.554 45.4734C89.554 45.477 89.4716 44.5484 88.6151 43.8941C87.7562 43.2349 86.4972 43.1771 86.502 43.1808C86.502 43.1832 86.7086 44.0757 87.5388 44.6892L87.5376 44.688Z" fill="#E08542"/>
<path d="M85.5727 42.6455C86.2607 42.1607 86.103 41.267 86.0983 41.2658C86.0995 41.2598 84.7688 41.1539 84.1058 41.6832C83.4464 42.2064 83.6638 43.0917 83.659 43.0905C83.659 43.0845 84.8894 43.1242 85.5727 42.6455Z" fill="#E08542"/>
<path d="M84.7854 44.4967C85.6383 45.0248 86.803 45.0825 86.8078 45.0861C86.8078 45.0897 86.6573 44.1767 85.7733 43.6054C84.887 43.0316 83.6542 43.0881 83.6602 43.0917C83.6602 43.0941 83.9313 43.9638 84.7866 44.4955L84.7854 44.4967Z" fill="#E08542"/>
<path d="M59.0756 58.4657C62.7595 50.6638 70.8597 44.611 81.0502 43.5765C81.2294 43.864 81.5579 44.2814 82.0919 44.5592C82.9639 45.0091 84.1011 44.9586 84.1059 44.9622C84.1059 44.9658 83.8896 44.0721 82.983 43.5849C82.369 43.2541 81.6141 43.218 81.2008 43.2373C81.1996 43.2325 81.1972 43.2277 81.196 43.2228C81.5949 43.1591 82.2854 43.0172 82.713 42.6479C83.3449 42.1042 83.1216 41.2285 83.1168 41.2273C83.1168 41.2213 81.8112 41.2345 81.2067 41.8203C80.8376 42.1727 80.8054 42.6322 80.8281 42.9354C70.6542 44.024 62.5218 50.0107 58.6718 57.8077C60.6572 50.3511 67.1889 42.8776 77.26 39.702C77.6303 39.9426 78.2383 40.2806 78.9849 40.4466C80.2021 40.7149 81.3943 40.4418 81.4002 40.443C81.405 40.4454 80.6142 39.5697 79.3373 39.2834C78.4736 39.0886 77.6458 39.2269 77.2134 39.3376C77.2086 39.3328 77.2038 39.3291 77.1991 39.3243C77.5873 39.1716 78.2371 38.8769 78.4426 38.4126C78.7496 37.7257 77.8991 36.9186 77.8919 36.921C77.8883 36.9138 76.554 37.2566 76.3044 37.9663C76.1491 38.3945 76.4083 38.842 76.6233 39.1295C66.1807 42.5901 59.5642 50.5965 57.8345 58.4284C58.059 58.444 58.2824 58.4645 58.5034 58.4873C58.5189 58.4199 58.5357 58.3538 58.5512 58.2864C58.7268 58.3454 58.9024 58.4043 59.0756 58.4657Z" fill="#E08542"/>
<path d="M103.301 41.107C103.308 41.1034 101.86 39.6696 100.524 39.2173C99.1941 38.7614 98.5586 39.3592 98.5586 39.3532C98.5658 39.3496 100.022 40.5621 101.306 41.0757C102.596 41.5857 103.3 41.1118 103.301 41.1058V41.107Z" fill="#E08542"/>
<path d="M97.9445 38.6038C98.5573 38.1491 97.9541 36.9138 97.9469 36.9138C97.9469 36.9042 96.345 36.4579 95.774 36.9655C95.209 37.4623 95.8194 38.6363 95.8123 38.6375C95.8123 38.6279 97.3365 39.0477 97.9445 38.6038Z" fill="#E08542"/>
<path d="M98.58 39.9366C97.2923 38.9081 95.8087 38.6375 95.8135 38.6399C95.8159 38.6447 96.486 39.8223 97.7259 40.8051C98.9683 41.783 100.386 42.2714 100.39 42.2738C100.392 42.2798 99.8677 40.9626 98.5788 39.9366H98.58Z" fill="#E08542"/>
<path d="M94.4733 37.8075C95.0419 37.3023 94.3849 36.1391 94.3777 36.1403C94.3777 36.1307 92.7974 35.8384 92.2742 36.3917C91.7557 36.9342 92.4163 38.0385 92.4091 38.0385C92.4091 38.03 93.9095 38.3007 94.4733 37.8063V37.8075Z" fill="#E08542"/>
<path d="M94.3883 39.9955C95.6474 40.84 97.0497 41.1792 97.0545 41.1816C97.0569 41.1864 96.4752 39.9462 95.166 39.0597C93.8579 38.1708 92.4054 38.0397 92.4102 38.0421C92.4138 38.0457 93.1293 39.1475 94.3883 39.9955Z" fill="#E08542"/>
<path d="M91.0629 37.3444C91.5837 36.7923 90.8777 35.7037 90.8718 35.7049C90.8718 35.6965 89.3225 35.5485 88.8494 36.1427C88.3812 36.7261 89.0859 37.7606 89.0788 37.7618C89.0776 37.7534 90.5457 37.8857 91.0629 37.3444Z" fill="#E08542"/>
<path d="M89.0798 37.7642C89.0798 37.7642 89.842 38.7939 91.1082 39.5144C92.3756 40.2313 93.7529 40.4298 93.7576 40.4322C93.7612 40.437 93.1257 39.2726 91.807 38.5184C90.4882 37.7618 89.0751 37.763 89.0798 37.7642Z" fill="#E08542"/>
<path d="M87.7349 37.1928C88.2056 36.5998 87.4566 35.5822 87.4506 35.5846C87.4494 35.5762 85.9419 35.5641 85.5215 36.1957C85.1058 36.8163 85.8488 37.781 85.8428 37.7822C85.8404 37.775 87.2679 37.7762 87.7349 37.1928Z" fill="#E08542"/>
<path d="M85.845 37.7835C85.845 37.7835 86.6441 38.7385 87.9091 39.3376C89.1753 39.933 90.5192 40.0003 90.524 40.0028C90.5276 40.0076 89.8455 38.9166 88.5255 38.2887C87.2056 37.6584 85.839 37.7823 85.845 37.7835Z" fill="#E08542"/>
<path d="M84.5109 37.3336C84.929 36.7045 84.1418 35.7578 84.1346 35.7602C84.1322 35.753 82.6749 35.8673 82.3106 36.5301C81.9486 37.182 82.7275 38.0782 82.7215 38.0806C82.7191 38.0733 84.0964 37.9531 84.5109 37.3336Z" fill="#E08542"/>
<path d="M82.7226 38.0818C82.7226 38.0818 83.5528 38.9647 84.8095 39.447C86.0673 39.927 87.367 39.8728 87.3718 39.874C87.3754 39.8777 86.6527 38.86 85.3399 38.3524C84.0271 37.8424 82.7167 38.0806 82.7214 38.0818H82.7226Z" fill="#E08542"/>
<path d="M81.4061 37.7462C81.7693 37.0858 80.9474 36.2089 80.9414 36.2113C80.9391 36.2041 79.5391 36.4374 79.2309 37.1255C78.9251 37.8039 79.735 38.6339 79.729 38.6363C79.7266 38.6291 81.0454 38.3969 81.4061 37.7462Z" fill="#E08542"/>
<path d="M82.2722 38.6904C80.9738 38.2947 79.7255 38.6375 79.7315 38.6387C79.7351 38.6411 80.5891 39.4494 81.8291 39.8235C83.0702 40.194 84.3197 40.0268 84.3256 40.028C84.3292 40.0316 83.5707 39.085 82.2722 38.6904Z" fill="#E08542"/>
</g>
<defs>
<clipPath id="clip0_157_994">
<rect width="116" height="105" fill="white"/>
</clipPath>
</defs>
</svg>
