<svg width="87" height="79" viewBox="0 0 87 79" fill="none" xmlns="http://www.w3.org/2000/svg">
<g clip-path="url(#clip0_143_3590)">
<path d="M71.9231 38.0182C71.8935 37.9884 71.864 37.9576 71.8335 37.9277C71.8425 37.9558 71.9186 37.9902 71.9231 38.0182Z" fill="#FCFBFD"/>
<path d="M42.1748 50.1491C42.276 50.2188 42.4767 51.1527 43.128 51.2306L46.8917 50.5174C53.8358 49.7291 56.9849 58.6137 63.0967 60.8265C65.0668 61.5396 68.2876 61.4573 70.2908 60.8509C70.6008 60.7568 70.9529 60.5432 71.2575 60.469C71.5379 60.4011 71.2333 60.9541 71.1903 61.0355C69.9011 63.4429 67.2044 65.7996 64.7523 66.9308C64.4119 67.8051 64.2524 68.7282 63.9021 69.6015C62.8342 72.2686 60.4314 74.6579 57.7016 75.5557C56.5253 75.9421 55.3194 75.8797 54.161 76.3231C52.5726 76.9304 51.1221 78.0255 49.4342 78.5169C49.0347 78.6336 46.5691 79.1115 46.3837 78.9775C46.235 78.8698 46.2932 77.9657 46.3228 77.7268C46.5378 76.0227 48.1128 74.5692 48.0993 72.7257C48.0868 71.0695 46.9033 69.6133 46.57 68.0648C47.1237 68.1644 47.6326 68.4449 48.1226 68.7128C49.0239 69.2042 49.9064 69.7708 50.8731 70.188C52.9793 71.0993 55.2621 71.6795 56.6785 69.3617C58.0949 67.044 57.302 63.8284 54.695 62.7976C51.7215 61.622 46.9311 62.2455 45.5165 65.5063C44.6492 67.5046 45.0345 69.073 44.7773 71.0948C44.6412 72.1618 44.2882 73.6596 43.9253 74.6687C43.6369 75.4724 42.7911 77.5974 42.3432 78.23C42.2778 78.3214 42.1855 78.4725 42.0879 78.5169C41.501 78.7875 38.5867 77.7567 37.9085 77.4001C30.1625 73.3329 30.8291 63.4148 36.0405 57.4734C36.8746 56.5222 37.9613 55.6742 38.7712 54.7113C39.5587 53.7755 41.1624 50.588 41.9096 50.1889C41.9803 50.1509 42.1183 50.1083 42.1739 50.1473L42.1748 50.1491Z" fill="white"/>
<path d="M40.0278 48.8783L39.5736 46.5786C38.0299 41.0028 31.5947 38.819 26.4549 38.2913C25.7194 38.2162 25.2857 38.4325 24.5556 38.0379C24.0826 37.7818 22.8104 36.7474 22.3347 36.7474C21.7281 36.7474 21.2219 37.5329 20.8116 37.8379C20.0922 38.3737 18.8541 38.4189 17.9662 38.7647C16.6815 39.2633 15.9845 40.0579 14.423 39.6769C13.8326 39.533 12.6804 38.8389 12.6975 38.1547C12.7145 37.4705 13.8093 35.8351 14.1533 35.093C14.9927 33.2839 15.6217 31.2693 16.4253 29.424C16.8616 28.4221 17.418 27.4854 17.7969 26.4564C17.8417 26.0437 17.0721 26.0817 16.7353 25.9333C16.6251 25.8844 16.5167 25.9369 16.5579 25.7577C16.9673 25.0129 17.7781 25.8663 18.2592 25.574C18.3219 25.536 19.1184 24.4545 19.1417 24.3839C19.2501 24.0635 18.7708 24.1169 18.493 23.9812C18.1839 23.83 16.9342 23.0499 17.5416 22.6743C17.727 22.5594 19.4373 22.9676 19.8046 22.9277C20.4685 23.0744 20.8779 23.3576 21.1754 23.9866C21.3492 24.3531 21.4889 25.6229 21.8867 25.6211C21.9664 25.6211 22.3615 24.3079 22.4538 24.1106C22.8847 23.1866 23.5656 22.6707 24.6004 22.5639C26.1646 22.401 25.8448 23.5884 25.4425 24.5957C25.3001 24.9523 24.9471 25.4165 24.8432 25.7107C24.8055 25.8157 24.7616 25.8609 24.8862 25.9396C25.0107 26.0184 27.3974 25.8591 27.8785 25.9034C30.0331 26.1035 33.6248 27.2999 35.6119 28.2275C38.0998 29.3887 40.3906 31.6956 41.4792 34.2468C43.5361 39.0678 42.1878 44.3676 40.0287 48.8783H40.0278Z" fill="white"/>
<path d="M60.4135 19.2714C60.3956 19.2714 60.3786 19.2723 60.3615 19.2723C57.8172 14.8196 53.0582 11.8213 47.603 11.8213C42.8682 11.8213 38.6583 14.0811 35.9644 17.589C34.2631 16.7174 32.3405 16.2242 30.3023 16.2242C26.1014 16.2242 22.3843 18.3103 20.1069 21.5122C20.1078 21.5122 20.1096 21.5122 20.1105 21.5122C20.8335 21.6724 21.3997 21.9702 21.8405 22.429C22.4963 21.6797 23.3823 21.2326 24.4529 21.1213C25.7583 20.9855 26.4401 21.5041 26.7814 21.962C27.344 22.7177 27.2455 23.6408 27.0484 24.3458C29.9018 24.4526 32.8574 25.2708 35.503 26.5957C35.6445 26.6555 35.7825 26.7161 35.9151 26.7749V21.0606L42.0905 18.1293V21.095L48.4514 17.9709V21.0914C48.7955 21.0914 49.1422 21.0914 49.4835 21.0923C49.5265 21.0923 49.5695 21.0923 49.6125 21.0923L50.3516 14.4857H53.3278L53.378 15.3373C53.4568 16.6767 53.8842 26.2527 53.9845 28.5098C55.3535 27.8428 56.7923 27.374 58.2786 27.1731C60.9044 24.3811 66.907 24.726 71.2664 25.3314C68.9998 21.6905 64.9871 19.2696 60.4153 19.2696L60.4135 19.2714Z" fill="white"/>
<path d="M41.1934 22.5422L47.5543 19.418V21.9991C48.4797 21.9937 49.4939 21.9991 50.4113 21.9991L51.1513 15.3916H52.4826C52.5704 16.8894 53.1088 29.0121 53.1088 29.0121C48.4224 31.5299 45.4211 35.6197 44.4204 38.2895C44.4204 38.0705 44.4338 37.8524 44.3962 37.6343C43.959 35.093 42.5928 32.0593 40.8386 30.1878C39.6954 28.9678 38.3095 27.8275 36.8115 27.1016V21.6371L41.1952 19.5565V22.5431L41.1934 22.5422Z" fill="white" fill-opacity="0.5"/>
<path d="M73.0873 41.5475C72.8204 41.3511 72.5579 41.1846 72.281 41.0045C72.2147 40.962 72.1484 40.943 72.1018 40.914C67.3939 37.9474 58.5236 38.2017 53.4967 40.3556C51.4988 41.2118 49.6228 42.5512 48.0021 43.9911C47.1188 44.5531 46.411 45.3341 45.6728 46.0726C45.6119 46.1333 45.5536 46.193 45.4936 46.2536C45.456 46.2916 42.7163 49.3298 42.7163 49.3298C44.5162 49.1099 46.0786 48.4193 48.2225 48.3315C50.5751 48.2103 52.607 49.0366 54.5422 50.6882C55.2177 51.2647 55.8654 51.9344 56.4379 52.5516C56.8294 52.9725 58.2154 54.6703 58.2154 54.6703C61.532 58.2777 66.2543 59.7981 70.9372 58.1094C71.0626 58.0641 71.2516 57.9836 71.3851 57.9284C71.4111 57.9175 71.4496 57.9392 71.4747 57.9284C72.3634 57.5492 73.7602 56.7998 74.6104 55.7563C75.956 54.1047 77.2846 51.767 77.3912 49.6511C77.5686 46.1333 75.7822 43.5259 73.0873 41.5475Z" fill="white" fill-opacity="0.8"/>
<path d="M71.3855 57.9282C71.2887 58.0839 71.1068 58.1128 70.9375 58.1092C71.0629 58.064 71.252 57.9834 71.3855 57.9282Z" fill="#80AE4E"/>
<path d="M74.0723 38.1988C73.9953 38.1789 73.8242 38.0241 73.8053 37.9716C73.7122 37.7083 74.1789 37.854 74.0723 38.1988Z" fill="#FCFBFD"/>
<path d="M74.3418 37.8363C74.2299 37.897 74.0292 37.6915 74.0731 37.6571C74.1851 37.5965 74.3857 37.8019 74.3418 37.8363Z" fill="#FCFBFD"/>
<path d="M73.9824 37.7465C73.9511 37.8081 73.8301 37.6931 73.8946 37.5664C73.926 37.5049 74.0469 37.6198 73.9824 37.7465Z" fill="#FCFBFD"/>
<path d="M7.41972 62.1004L6.77198 62.4099L5.66196 60.0496L7.70999 59.0713C8.166 59.2975 8.55662 59.5681 8.88093 59.8849C9.20614 60.2017 9.46327 60.5628 9.6532 60.9682C9.90943 61.5157 10.0268 62.0687 10.0044 62.6271C9.98199 63.1855 9.80461 63.6842 9.47223 64.1222C9.13985 64.5602 8.70265 64.9087 8.16063 65.1675C7.62309 65.4245 7.06853 65.5503 6.49694 65.5458C5.92536 65.5413 5.42634 65.3802 5.00079 65.0616C4.57523 64.7439 4.233 64.3068 3.97229 63.7511C3.78326 63.3484 3.67754 62.9529 3.65425 62.5647C3.63096 62.1773 3.69188 61.8352 3.83612 61.5402C3.98036 61.2451 4.21598 60.9601 4.54209 60.6858L5.03483 61.2651C4.79294 61.4832 4.62093 61.6931 4.5179 61.894C4.41576 62.095 4.37007 62.3339 4.38082 62.6108C4.39247 62.8878 4.46414 63.1665 4.59584 63.448C4.75352 63.7855 4.94076 64.0525 5.15757 64.2498C5.37438 64.4471 5.60104 64.5819 5.83756 64.6534C6.07408 64.7249 6.31059 64.7557 6.54801 64.7449C6.95564 64.724 7.35969 64.6181 7.75837 64.4272C8.25022 64.1919 8.62202 63.9095 8.87287 63.5801C9.12372 63.2507 9.25363 62.8841 9.26079 62.4805C9.26796 62.0769 9.18554 61.6904 9.01353 61.323C8.86391 61.0035 8.65696 60.7211 8.39267 60.475C8.12838 60.2288 7.89096 60.0605 7.67863 59.9691L6.65104 60.4605L7.41882 62.0995L7.41972 62.1004Z" fill="white"/>
<path d="M8.25043 57.7955L2.48083 59.8155L2.23535 59.0996L8.00495 57.0796L8.25043 57.7955Z" fill="white"/>
<path d="M5.57267 56.9139C4.77891 57.1185 4.13475 57.047 3.64022 56.6994C3.229 56.4089 2.95575 55.9953 2.82047 55.4605C2.66996 54.865 2.74073 54.3292 3.0319 53.8513C3.32307 53.3744 3.80864 53.0477 4.48953 52.873C5.0414 52.7309 5.49652 52.7029 5.85399 52.7889C6.21235 52.8748 6.51964 53.0549 6.77497 53.3292C7.0303 53.6034 7.2059 53.9301 7.30087 54.3075C7.45406 54.9138 7.38508 55.4532 7.09481 55.9257C6.80454 56.3981 6.29746 56.7284 5.57357 56.9139H5.57267ZM5.38185 56.16C5.93103 56.0189 6.31179 55.7917 6.52322 55.4795C6.73555 55.1672 6.79468 54.8279 6.7024 54.4604C6.61013 54.0966 6.3969 53.8287 6.06184 53.6568C5.72677 53.4857 5.27703 53.4721 4.7153 53.6169C4.18492 53.7536 3.81402 53.9781 3.60259 54.2921C3.39116 54.6052 3.33023 54.9428 3.42162 55.3048C3.51389 55.6722 3.72712 55.941 4.0595 56.113C4.39277 56.2849 4.83355 56.3003 5.38185 56.1591V56.16Z" fill="white"/>
<path d="M6.48451 50.9107L6.5741 51.6076L0.519609 52.4058L0.422852 51.6547L2.58287 51.3696C2.14836 51.1044 1.8993 50.7252 1.83569 50.2329C1.80075 49.9605 1.82135 49.6953 1.8993 49.4374C1.97634 49.1794 2.10356 48.9595 2.28005 48.7758C2.45655 48.593 2.67783 48.4382 2.94481 48.3124C3.21179 48.1866 3.50296 48.1034 3.82011 48.0617C4.57177 47.9631 5.1774 48.0735 5.6361 48.3948C6.0948 48.7161 6.35819 49.1396 6.42628 49.6654C6.49347 50.1885 6.33042 50.6275 5.93712 50.9813L6.48631 50.9089L6.48451 50.9107ZM4.2591 51.213C4.78499 51.1433 5.15589 51.0212 5.37091 50.8456C5.723 50.5587 5.87351 50.2139 5.82065 49.8102C5.77854 49.4817 5.60026 49.2165 5.28759 49.0147C4.97403 48.8129 4.53862 48.7487 3.97958 48.822C3.4071 48.8971 2.99946 49.0681 2.75578 49.3333C2.51299 49.5985 2.41265 49.8944 2.45475 50.2193C2.49686 50.5478 2.67515 50.813 2.98781 51.0148C3.30048 51.2166 3.72424 51.2827 4.2591 51.2121V51.213Z" fill="white"/>
<path d="M5.46336 44.1071C5.70256 44.385 5.87189 44.6538 5.97133 44.9117C6.07078 45.1705 6.12274 45.4484 6.12543 45.7452C6.1308 46.2358 6.01613 46.615 5.7814 46.881C5.54667 47.1471 5.24476 47.282 4.87564 47.2865C4.65884 47.2892 4.46084 47.2412 4.28077 47.1435C4.10069 47.0457 3.95556 46.9172 3.84536 46.757C3.73516 46.5969 3.65185 46.4159 3.59361 46.2149C3.5533 46.0665 3.51298 45.843 3.47446 45.5425C3.39562 44.9316 3.30513 44.4827 3.2021 44.1949C3.09907 44.1931 3.03367 44.1922 3.0059 44.1931C2.7004 44.1967 2.48628 44.2701 2.36264 44.4149C2.19511 44.6103 2.11358 44.899 2.11717 45.2801C2.12075 45.6366 2.18526 45.8982 2.31068 46.0665C2.43611 46.2349 2.6556 46.3579 2.97096 46.4358L2.87868 47.177C2.56422 47.1127 2.30979 47.005 2.11538 46.853C1.92097 46.7009 1.76956 46.4792 1.66295 46.1887C1.55544 45.8982 1.49989 45.5606 1.49631 45.176C1.49273 44.795 1.53394 44.4845 1.61994 44.2447C1.70595 44.0058 1.81615 43.8293 1.94963 43.7153C2.08312 43.6022 2.25245 43.5216 2.45761 43.4745C2.58483 43.4483 2.81507 43.4329 3.14835 43.4293L4.14817 43.4184C4.84518 43.4112 5.28597 43.3904 5.46963 43.356C5.65418 43.3216 5.83067 43.2564 5.99821 43.1587L6.00627 43.9497C5.85128 44.0302 5.67031 44.0818 5.46246 44.1071H5.46336ZM3.78981 44.1877C3.90359 44.4619 4.00214 44.8728 4.08636 45.4221C4.13384 45.7326 4.1867 45.9525 4.24314 46.081C4.30048 46.2095 4.382 46.3082 4.48951 46.3769C4.59702 46.4457 4.71617 46.4801 4.84698 46.4783C5.04676 46.4765 5.2125 46.3978 5.3442 46.2439C5.4759 46.09 5.5404 45.8656 5.53682 45.5706C5.53413 45.2792 5.46784 45.0203 5.33883 44.7941C5.20982 44.5678 5.03601 44.4031 4.81472 44.299C4.6445 44.2194 4.39455 44.1814 4.06396 44.185L3.78892 44.1877H3.78981Z" fill="white"/>
<path d="M6.09033 42.3659L0 41.9188L0.0546499 41.1631L6.14498 41.6111L6.09033 42.3668V42.3659Z" fill="white"/>
<path d="M6.51218 38.1901L0.5625 36.8018L1.08123 34.5347C1.17261 34.1356 1.2613 33.8351 1.34731 33.6333C1.46378 33.35 1.6125 33.1238 1.79526 32.9564C1.97802 32.7889 2.20558 32.6731 2.47973 32.6088C2.75387 32.5446 3.03787 32.5473 3.33352 32.6161C3.8397 32.7337 4.23032 32.9971 4.50625 33.4034C4.78219 33.8107 4.8234 34.4388 4.62899 35.2886L4.2769 36.8298L6.69583 37.3946L6.51397 38.1901H6.51218ZM3.57273 36.6669L3.9284 35.113C4.04576 34.599 4.03501 34.2125 3.89435 33.9519C3.75459 33.6921 3.5127 33.522 3.16867 33.4415C2.91961 33.3835 2.69206 33.3971 2.486 33.4831C2.27994 33.5691 2.12405 33.7093 2.02013 33.903C1.95473 34.0288 1.88037 34.2723 1.79795 34.6325L1.44675 36.1701L3.57362 36.666L3.57273 36.6669Z" fill="white"/>
<path d="M8.31861 29.9695C8.44224 30.3162 8.50496 30.6275 8.50585 30.9053C8.50675 31.1832 8.45568 31.461 8.35265 31.7388C8.18243 32.1986 7.94054 32.5099 7.62608 32.6728C7.31251 32.8357 6.98192 32.852 6.63611 32.7208C6.43363 32.6439 6.2652 32.5271 6.13172 32.3706C5.99823 32.214 5.90953 32.0411 5.86384 31.8511C5.81815 31.6619 5.80471 31.4628 5.82263 31.2538C5.83786 31.1008 5.88086 30.8773 5.95074 30.5831C6.09498 29.9849 6.17113 29.5324 6.17741 29.2265C6.08244 29.1876 6.02152 29.1632 5.99554 29.1532C5.70975 29.0446 5.48308 29.0356 5.31645 29.1252C5.09068 29.2464 4.9115 29.4854 4.77891 29.8428C4.65527 30.1768 4.62212 30.4447 4.67856 30.6474C4.73501 30.8501 4.89627 31.0447 5.16235 31.232L4.81205 31.89C4.54149 31.7162 4.3426 31.5225 4.21538 31.309C4.08817 31.0963 4.02635 30.8347 4.02993 30.5243C4.03352 30.2139 4.1025 29.879 4.23599 29.5188C4.36858 29.1614 4.5173 28.8871 4.68394 28.6953C4.84968 28.5034 5.01542 28.3785 5.18027 28.3215C5.34511 28.2645 5.53146 28.2509 5.74021 28.2817C5.86832 28.3034 6.08871 28.3731 6.40049 28.4907L7.3367 28.8446C7.98981 29.0917 8.4082 29.2329 8.59186 29.2672C8.77641 29.3025 8.96366 29.3053 9.15538 29.2763L8.88123 30.0175C8.70832 30.0356 8.52019 30.0184 8.31771 29.9659L8.31861 29.9695ZM6.72928 29.4356C6.73824 29.7324 6.68359 30.1524 6.56533 30.6945C6.49903 31.0022 6.46947 31.2257 6.47664 31.366C6.4838 31.5063 6.52502 31.6284 6.60117 31.7316C6.67732 31.8348 6.77587 31.9099 6.89771 31.9561C7.08495 32.0266 7.26772 32.014 7.44511 31.918C7.62249 31.8221 7.76315 31.6366 7.86528 31.3605C7.96652 31.0872 7.99788 30.8221 7.95756 30.5641C7.91814 30.3062 7.81422 30.089 7.64579 29.9116C7.51499 29.7759 7.29549 29.6492 6.9864 29.5315L6.72928 29.4338V29.4356Z" fill="white"/>
<path d="M9.51466 28.5798L5.53955 26.6196L5.8352 26.0069L6.43814 26.3037C6.23208 26.0087 6.11561 25.7725 6.08963 25.596C6.06365 25.4195 6.08963 25.2521 6.16579 25.0928C6.27688 24.8638 6.46143 24.6656 6.72124 24.5L7.2328 25.043C7.05541 25.1616 6.9264 25.3037 6.84577 25.4702C6.7741 25.6186 6.7535 25.7743 6.78485 25.9363C6.81621 26.0983 6.89863 26.244 7.03123 26.3716C7.23459 26.5653 7.47828 26.7327 7.76228 26.873L9.84346 27.8993L9.51466 28.5798Z" fill="white"/>
<path d="M10.9899 24.3298L11.6188 24.5669C11.5525 24.7741 11.4782 24.9506 11.3949 25.0972C11.2596 25.3361 11.1171 25.499 10.9684 25.5877C10.8197 25.6764 10.6683 25.7117 10.5169 25.6945C10.3655 25.6773 10.094 25.5561 9.70339 25.3307L7.495 24.0528L7.22175 24.5352L6.71557 24.2429L6.98882 23.7605L6.03826 23.2102L6.01855 22.3306L7.35972 23.1062L7.7342 22.4455L8.24039 22.7378L7.8659 23.3985L10.1101 24.6972C10.2956 24.8049 10.4219 24.8619 10.4873 24.8691C10.5536 24.8764 10.6172 24.8637 10.6781 24.8293C10.7391 24.7949 10.7973 24.7298 10.8528 24.632C10.894 24.5587 10.9406 24.4583 10.9908 24.3288L10.9899 24.3298Z" fill="white"/>
<path d="M11.8646 24.1333L8.23975 21.5721L8.62678 21.0137L9.14192 21.3775C8.92959 20.8273 8.99947 20.2978 9.35156 19.7901C9.50476 19.5693 9.68394 19.3946 9.89089 19.2652C10.0978 19.1358 10.2967 19.0697 10.4876 19.0679C10.6784 19.0661 10.8746 19.1087 11.0753 19.1955C11.2052 19.2535 11.4121 19.382 11.6961 19.5829L13.9251 21.1576L13.4951 21.7785L11.2903 20.2209C11.0403 20.0435 10.8361 19.9358 10.6784 19.8969C10.5207 19.8571 10.363 19.8734 10.2036 19.944C10.0441 20.0146 9.90791 20.1331 9.79324 20.2988C9.61047 20.563 9.53522 20.8499 9.56837 21.1594C9.60152 21.4689 9.85057 21.7875 10.3147 22.1151L12.2946 23.5143L11.8646 24.1351V24.1333Z" fill="white"/>
<path d="M15.4891 17.1457L16.0777 16.6272C16.333 17.0245 16.4441 17.4308 16.4091 17.848C16.3751 18.2652 16.1861 18.6671 15.8438 19.0535C15.412 19.5404 14.9211 19.792 14.3719 19.8083C13.8218 19.8246 13.2798 19.5911 12.744 19.106C12.1895 18.6046 11.8875 18.0707 11.8374 17.5059C11.7872 16.9412 11.9655 16.4281 12.3731 15.9683C12.7682 15.523 13.2403 15.295 13.7904 15.285C14.3405 15.2742 14.8879 15.5149 15.4317 16.0072C15.4649 16.0371 15.5132 16.0832 15.5777 16.1448L13.3765 18.6273C13.7573 18.9341 14.1255 19.0816 14.483 19.0689C14.8404 19.0571 15.1423 18.9123 15.3887 18.6345C15.5724 18.4272 15.6745 18.2028 15.6969 17.9594C15.7193 17.7159 15.6503 17.4444 15.4899 17.1457H15.4891ZM12.9438 18.1811L14.5923 16.3222C14.293 16.0968 14.0216 15.9792 13.7797 15.971C13.4052 15.9556 13.0907 16.0914 12.8372 16.3783C12.6078 16.6371 12.5003 16.9331 12.5156 17.2643C12.5308 17.5964 12.6732 17.9014 12.9447 18.1802L12.9438 18.1811Z" fill="white"/>
<path d="M17.6645 16.9882L14.665 13.7038L15.1614 13.2414L15.6156 13.7391C15.5296 13.388 15.5063 13.1255 15.5457 12.9518C15.5851 12.778 15.6693 12.6305 15.7975 12.511C15.9829 12.3382 16.2266 12.2214 16.5276 12.1626L16.8089 12.8558C16.6011 12.9011 16.4291 12.9862 16.2947 13.112C16.1746 13.2242 16.0994 13.3617 16.0707 13.5237C16.0411 13.6866 16.0662 13.8514 16.1442 14.0197C16.2633 14.2749 16.4309 14.5193 16.645 14.7546L18.2155 16.4741L17.6645 16.9873V16.9882Z" fill="white"/>
<path d="M18.6287 14.2639L19.1447 13.7137C19.3588 13.9255 19.59 14.0359 19.8373 14.0458C20.0845 14.0549 20.3434 13.9544 20.614 13.7435C20.8864 13.5309 21.0458 13.3173 21.0924 13.1028C21.139 12.8883 21.1041 12.7046 20.9885 12.5534C20.8855 12.4177 20.7457 12.3571 20.5692 12.3697C20.4474 12.3797 20.1929 12.4693 19.8068 12.6394C19.2863 12.8675 18.9118 13.0069 18.6815 13.0566C18.4513 13.1064 18.2381 13.0937 18.0419 13.0186C17.8457 12.9435 17.6817 12.8186 17.5491 12.6458C17.4291 12.4883 17.3529 12.3145 17.3216 12.1245C17.2902 11.9344 17.3028 11.7471 17.3574 11.5624C17.3968 11.4222 17.4784 11.2656 17.6011 11.0936C17.7238 10.9217 17.877 10.7642 18.0589 10.6221C18.3339 10.4076 18.6054 10.2601 18.8742 10.1778C19.1429 10.0954 19.3795 10.0846 19.5819 10.1443C19.7853 10.204 19.9931 10.3334 20.2046 10.5325L19.685 11.0647C19.5192 10.9036 19.3347 10.8203 19.1304 10.8167C18.9261 10.8131 18.7084 10.9009 18.4773 11.081C18.2049 11.2937 18.0446 11.491 17.998 11.6729C17.9514 11.8548 17.9738 12.0068 18.067 12.129C18.1261 12.2068 18.204 12.2575 18.2999 12.2828C18.3975 12.3091 18.514 12.3037 18.6493 12.2656C18.7254 12.2412 18.9396 12.1561 19.2908 12.0104C19.7969 11.7968 20.1607 11.6611 20.382 11.6041C20.6033 11.5471 20.8138 11.5507 21.0136 11.614C21.2134 11.6783 21.3907 11.8122 21.5475 12.0168C21.6998 12.2168 21.7858 12.4503 21.8056 12.7163C21.8253 12.9824 21.7625 13.2494 21.6192 13.5155C21.475 13.7816 21.2662 14.0223 20.9912 14.2359C20.5361 14.5906 20.1159 14.7653 19.7315 14.7599C19.3472 14.7544 18.979 14.5906 18.626 14.2657L18.6287 14.2639Z" fill="white"/>
<path d="M22.9474 12.6349L19.7866 7.35769L20.4281 6.96582L21.5623 8.85912C21.6519 8.32606 21.9242 7.91971 22.3811 7.64096C22.6616 7.46992 22.9384 7.3767 23.2116 7.36222C23.4849 7.34774 23.725 7.41109 23.932 7.55318C24.1389 7.69527 24.3548 7.9541 24.5788 8.32787L26.0302 10.7506L25.3887 11.1425L23.9373 8.71975C23.7429 8.39575 23.5324 8.20208 23.3048 8.13963C23.0773 8.07718 22.8363 8.12334 22.5827 8.279C22.3928 8.39485 22.2441 8.55413 22.1357 8.75595C22.0282 8.95777 21.9896 9.16592 22.0201 9.37951C22.0506 9.59309 22.1563 9.85012 22.3355 10.1506L23.5879 12.2421L22.9465 12.634L22.9474 12.6349Z" fill="white"/>
<path d="M24.6247 5.55966L24.2422 4.77954L24.9141 4.44287L25.2967 5.223L24.6247 5.55966ZM26.9541 10.3065L24.9894 6.30268L25.6613 5.96602L27.626 9.96982L26.9541 10.3065Z" fill="white"/>
<path d="M29.1537 11.089L26.9067 5.33942L27.5419 5.08601L27.7534 5.62631C27.8206 5.35571 27.9281 5.12945 28.075 4.94845C28.2219 4.76745 28.4298 4.62355 28.6985 4.51676C29.0497 4.37648 29.3956 4.3448 29.7351 4.41992C30.0746 4.49504 30.3784 4.67242 30.6453 4.95026C30.9123 5.2281 31.1228 5.56567 31.2778 5.96207C31.4445 6.38743 31.5179 6.80012 31.5 7.20104C31.4821 7.60197 31.3647 7.9504 31.147 8.24634C30.9302 8.54228 30.6624 8.75405 30.3452 8.88076C30.1132 8.97307 29.8847 9.00746 29.6616 8.98121C29.4386 8.95587 29.2379 8.89071 29.0596 8.78664L29.8507 10.8103L29.1537 11.0881V11.089ZM28.359 7.18928C28.5677 7.72414 28.8293 8.0771 29.1438 8.24724C29.4583 8.41739 29.7674 8.44182 30.072 8.32055C30.3819 8.19656 30.5952 7.95854 30.7125 7.60559C30.8299 7.25263 30.7797 6.79831 30.5629 6.24263C30.356 5.71319 30.0935 5.35933 29.7745 5.18195C29.4556 5.00456 29.1465 4.9756 28.8473 5.09506C28.5498 5.21362 28.342 5.45888 28.2228 5.82994C28.1037 6.2019 28.1494 6.65532 28.3581 7.18928H28.359Z" fill="white"/>
<path d="M34.2975 5.09632C34.1381 4.28452 34.2438 3.63834 34.6138 3.15868C34.9229 2.75956 35.3457 2.50616 35.8824 2.39846C36.4791 2.279 37.0049 2.37855 37.461 2.69802C37.917 3.01659 38.2135 3.52431 38.3497 4.22117C38.4608 4.785 38.4635 5.24565 38.3595 5.60223C38.2556 5.95881 38.0612 6.25927 37.7763 6.50182C37.4914 6.74436 37.1599 6.90455 36.781 6.97967C36.1735 7.10094 35.6441 7.0032 35.1925 6.68463C34.741 6.36607 34.4427 5.83663 34.2966 5.09632H34.2975ZM35.0537 4.94428C35.1639 5.50539 35.3672 5.90179 35.6647 6.13257C35.9621 6.36335 36.2945 6.44209 36.6618 6.36788C37.0264 6.29457 37.3033 6.09365 37.4905 5.76423C37.6778 5.4348 37.7154 4.9832 37.6025 4.4076C37.4959 3.8655 37.2934 3.47905 36.9951 3.24918C36.6968 3.01931 36.3662 2.93966 36.0042 3.01206C35.6369 3.08537 35.3583 3.28538 35.171 3.61209C34.9829 3.9388 34.9444 4.38226 35.0546 4.94338L35.0537 4.94428Z" fill="white"/>
<path d="M39.4965 6.39143L39.1597 1.93602L39.8325 1.88443L39.8809 2.51795C40.1676 2.00389 40.6173 1.72243 41.2292 1.67537C41.4953 1.65456 41.7425 1.68442 41.9728 1.76316C42.203 1.8428 42.3795 1.95593 42.5023 2.10435C42.625 2.25277 42.7164 2.43287 42.7773 2.64465C42.8158 2.78221 42.8481 3.02566 42.8741 3.3759L43.081 6.1154L42.3338 6.17332L42.1287 3.46278C42.1054 3.15508 42.0588 2.92701 41.9889 2.7795C41.919 2.63198 41.8071 2.51795 41.6521 2.4383C41.4971 2.35866 41.3197 2.32699 41.1208 2.34237C40.8027 2.36681 40.5349 2.48989 40.3199 2.71252C40.1039 2.93425 40.0179 3.33065 40.0609 3.90172L40.2446 6.33531L39.4974 6.39324L39.4965 6.39143Z" fill="white"/>
<path d="M46.4102 6.12426L47.1403 0L47.9636 0.100457L50.5743 5.29617L51.1477 0.487805L51.9173 0.581022L51.1871 6.70529L50.3638 6.60483L47.7531 1.40459L47.1797 6.21658L46.4102 6.12336V6.12426Z" fill="white"/>
<path d="M55.0298 7.68808L55.1946 7.05276C54.735 7.45278 54.219 7.57676 53.6465 7.42562C53.3939 7.35865 53.1708 7.24734 52.9773 7.09167C52.7838 6.93601 52.653 6.77039 52.5849 6.59391C52.5177 6.41834 52.4899 6.21742 52.5024 5.99117C52.5105 5.84003 52.5544 5.60744 52.6359 5.29611L53.3311 2.61816L54.0559 2.81003L53.4333 5.20742C53.3338 5.59025 53.2819 5.8518 53.2765 5.99207C53.272 6.19661 53.3294 6.37399 53.4485 6.52242C53.5677 6.67174 53.7361 6.77492 53.9538 6.83193C54.1715 6.88985 54.3901 6.88714 54.6105 6.8256C54.83 6.76406 55.0056 6.6464 55.1346 6.47264C55.2645 6.29978 55.3774 6.02918 55.4723 5.65993L56.0735 3.34399L56.7983 3.53585L55.6757 7.85822L55.0271 7.68627L55.0298 7.68808Z" fill="white"/>
<path d="M58.4279 8.14516L58.3052 8.81125C58.0919 8.78139 57.9065 8.73795 57.7497 8.68093C57.4935 8.58772 57.3098 8.47459 57.1978 8.34155C57.0858 8.20851 57.0249 8.06461 57.0151 7.91076C57.0052 7.75691 57.076 7.46549 57.2292 7.03832L58.0919 4.62011L57.575 4.43187L57.773 3.878L58.2899 4.06624L58.6617 3.02547L59.5155 2.85352L58.9914 4.32236L59.701 4.58029L59.503 5.13416L58.7934 4.87623L57.9163 7.33426C57.8438 7.53789 57.8097 7.67274 57.8142 7.73971C57.8178 7.80668 57.842 7.86823 57.8859 7.92253C57.9298 7.97773 58.0041 8.02389 58.109 8.0619C58.1869 8.09086 58.2935 8.11892 58.4288 8.14697L58.4279 8.14516Z" fill="white"/>
<path d="M58.7826 9.02197L60.5529 4.92676L61.171 5.19917L60.9023 5.82001C61.1854 5.59919 61.4138 5.47158 61.5876 5.43809C61.7614 5.40461 61.9281 5.42271 62.0884 5.4942C62.3196 5.59647 62.5229 5.77476 62.6976 6.02907L62.1825 6.56846C62.058 6.39379 61.9119 6.26981 61.7435 6.19559C61.593 6.12953 61.4389 6.11595 61.2794 6.15396C61.12 6.19288 60.9802 6.28157 60.8593 6.42094C60.6765 6.63453 60.5215 6.88703 60.3943 7.18025L59.4679 9.32424L58.7808 9.02106L58.7826 9.02197Z" fill="white"/>
<path d="M61.2993 10.1814L63.3088 6.20111L63.9772 6.54502L61.9677 10.5253L61.3002 10.1814H61.2993ZM63.6815 5.46261L64.073 4.68701L64.7414 5.03092L64.3499 5.80652L63.6824 5.46261H63.6815Z" fill="white"/>
<path d="M66.2069 11.3699L66.8144 11.8649C66.4721 12.188 66.0941 12.369 65.6819 12.407C65.2689 12.445 64.8452 12.3274 64.4089 12.0541C63.8597 11.7093 63.5291 11.2649 63.4171 10.721C63.3051 10.1771 63.4395 9.59696 63.8185 8.97883C64.2109 8.33988 64.6785 7.94711 65.2214 7.79868C65.7635 7.65026 66.2947 7.73895 66.8135 8.06476C67.3161 8.37971 67.6198 8.81049 67.7264 9.35532C67.8321 9.90104 67.6923 10.4866 67.3071 11.1138C67.2838 11.1518 67.2471 11.2079 67.1978 11.283L64.3954 9.52455C64.1625 9.95625 64.0828 10.349 64.1562 10.702C64.2297 11.0549 64.4232 11.3301 64.7377 11.5274C64.9715 11.674 65.2089 11.7373 65.4499 11.7165C65.6909 11.6966 65.9435 11.5808 66.2078 11.3699H66.2069ZM64.7556 9.01774L66.8538 10.3345C67.0222 9.99788 67.0885 9.70737 67.0554 9.46482C67.0052 9.09015 66.8179 8.80054 66.4945 8.59782C66.2025 8.4141 65.8952 8.35889 65.5744 8.43129C65.2537 8.50369 64.9805 8.69918 64.7556 9.01684V9.01774Z" fill="white"/>
<path d="M66.7338 13.4623L69.5021 9.97705L70.028 10.4033L69.6347 10.8984C70.192 10.721 70.7098 10.826 71.1891 11.2142C71.397 11.3825 71.5582 11.5753 71.6729 11.7925C71.7876 12.0097 71.8395 12.2143 71.8288 12.407C71.818 12.5998 71.7634 12.7944 71.6639 12.9908C71.5985 13.1175 71.4579 13.3184 71.2402 13.5917L69.538 15.7348L68.953 15.2606L70.6372 13.1401C70.8281 12.8994 70.9481 12.7012 70.9974 12.5446C71.0467 12.3889 71.0413 12.2278 70.9822 12.0631C70.923 11.8984 70.8146 11.7527 70.6587 11.626C70.4097 11.4242 70.1311 11.3301 69.8238 11.3427C69.5165 11.3554 69.185 11.5853 68.8302 12.0314L67.3179 13.9347L66.7329 13.4605L66.7338 13.4623Z" fill="white"/>
<path d="M71.9141 17.1131L71.5333 17.6715C71.3506 17.5556 71.1992 17.4398 71.0791 17.3231C70.8829 17.1321 70.7611 16.9538 70.7127 16.7855C70.6643 16.618 70.667 16.4615 70.7199 16.3167C70.7727 16.1719 70.9555 15.9357 71.2673 15.608L73.0313 13.7555L72.6353 13.3708L73.0393 12.9464L73.4353 13.331L74.1951 12.5337L75.0444 12.7283L73.9729 13.8532L74.5158 14.3808L74.1117 14.8053L73.5688 14.2777L71.7752 16.161C71.6265 16.3167 71.5414 16.4262 71.5181 16.4886C71.4948 16.5511 71.4921 16.6171 71.51 16.685C71.528 16.7529 71.5772 16.8262 71.657 16.904C71.717 16.9619 71.803 17.0325 71.9141 17.1131Z" fill="white"/>
<path d="M73.4916 19.715L78.4334 16.0913L79.1474 17.0859L76.4974 20.8327C76.2501 21.1802 76.0629 21.4391 75.9374 21.6074C76.1578 21.5323 76.4857 21.4273 76.9202 21.2925L81.217 19.9666L81.8557 20.8553L76.914 24.479L76.4562 23.8419L80.5925 20.8092L75.4142 22.3911L74.986 21.7956L78.1557 17.2669L73.9485 20.3512L73.4907 19.7141L73.4916 19.715Z" fill="white"/>
<path d="M79.1843 27.7144C78.8466 27.575 78.576 27.413 78.3717 27.2284C78.1675 27.0438 77.9973 26.8184 77.862 26.5551C77.638 26.1188 77.5717 25.7297 77.6622 25.3849C77.7527 25.0401 77.9614 24.7821 78.2893 24.6102C78.4819 24.5097 78.6799 24.4617 78.8842 24.4663C79.0885 24.4708 79.2757 24.5206 79.445 24.6129C79.6144 24.7052 79.7702 24.8283 79.9118 24.9821C80.0139 25.0962 80.1492 25.2781 80.3185 25.527C80.6617 26.0365 80.943 26.3958 81.1634 26.6057C81.2557 26.5605 81.3148 26.5315 81.339 26.518C81.6104 26.3759 81.7681 26.2121 81.8138 26.0274C81.8756 25.7767 81.8201 25.4817 81.6463 25.1432C81.4841 24.8274 81.3094 24.6228 81.1222 24.5296C80.9349 24.4364 80.6841 24.4265 80.3678 24.5007L80.1188 23.7966C80.4278 23.7106 80.7038 23.6907 80.9448 23.7377C81.1867 23.7848 81.4196 23.9133 81.6454 24.1242C81.8711 24.335 82.0709 24.6102 82.2465 24.9514C82.4203 25.2898 82.5225 25.5858 82.552 25.8392C82.5816 26.0917 82.5628 26.2998 82.4938 26.4618C82.4248 26.6238 82.3101 26.7732 82.148 26.908C82.0458 26.9895 81.8469 27.108 81.5513 27.2637L80.6644 27.7289C80.0453 28.0529 79.6618 28.2728 79.5122 28.3868C79.3626 28.5018 79.2354 28.6402 79.1279 28.804L78.7668 28.1017C78.869 27.9596 79.0078 27.8302 79.1816 27.7135L79.1843 27.7144ZM80.642 26.8791C80.418 26.6863 80.1465 26.365 79.8267 25.9125C79.6448 25.6573 79.5006 25.4844 79.3922 25.3957C79.2838 25.307 79.1664 25.2564 79.0401 25.2437C78.9129 25.231 78.7919 25.2554 78.6764 25.3161C78.499 25.4093 78.3861 25.5541 78.3368 25.7523C78.2884 25.9496 78.3314 26.1795 78.4649 26.441C78.5975 26.6999 78.7722 26.9008 78.9881 27.0438C79.204 27.1868 79.4334 27.2546 79.6771 27.2465C79.8643 27.2402 80.1053 27.1596 80.3983 27.0058L80.642 26.8781V26.8791Z" fill="white"/>
<path d="M79.4233 29.5016L83.566 27.9341L83.8025 28.5721L83.213 28.7948C83.7819 28.9296 84.1743 29.288 84.3893 29.8681C84.4825 30.1206 84.5237 30.3695 84.5129 30.6147C84.5013 30.86 84.4422 31.0627 84.3356 31.2229C84.2289 31.3831 84.0829 31.5216 83.8984 31.6401C83.7783 31.7152 83.5552 31.8148 83.23 31.9379L80.683 32.9017L80.4205 32.1922L82.9406 31.2392C83.2264 31.1306 83.4307 31.0229 83.5516 30.9134C83.6726 30.8048 83.7496 30.6636 83.7819 30.4917C83.8141 30.3188 83.7953 30.1387 83.7255 29.9496C83.6135 29.6473 83.4217 29.4228 83.1512 29.2753C82.8797 29.1278 82.4793 29.154 81.9489 29.355L79.6867 30.2111L79.4242 29.5016H79.4233Z" fill="white"/>
<path d="M82.1839 36.5502C81.8891 36.3339 81.6642 36.1113 81.5092 35.8823C81.3543 35.6534 81.2423 35.3945 81.1724 35.1058C81.0577 34.6289 81.0855 34.2343 81.2539 33.9212C81.4232 33.608 81.6875 33.408 82.0459 33.3202C82.2564 33.2686 82.4607 33.2695 82.6578 33.3238C82.8549 33.3781 83.0251 33.4705 83.1685 33.6017C83.3109 33.7329 83.4336 33.8895 83.534 34.0723C83.6065 34.2071 83.6952 34.4162 83.8001 34.6995C84.0133 35.2769 84.2014 35.6932 84.3663 35.9502C84.4666 35.9285 84.5302 35.914 84.5571 35.9077C84.8536 35.8353 85.0463 35.714 85.1341 35.5457C85.2532 35.3176 85.2684 35.018 85.1797 34.647C85.0964 34.3004 84.9755 34.0596 84.8151 33.9248C84.6547 33.7899 84.4137 33.7193 84.0894 33.7148L84.0142 32.9718C84.3349 32.9627 84.6073 33.0098 84.8303 33.1139C85.0543 33.218 85.2505 33.399 85.4198 33.6578C85.5892 33.9166 85.7182 34.2325 85.8087 34.6063C85.8974 34.9773 85.9269 35.2886 85.8965 35.5421C85.866 35.7955 85.7979 35.9918 85.6931 36.133C85.5883 36.2742 85.4414 36.391 85.2523 36.4833C85.1341 36.5385 84.9128 36.6054 84.5893 36.6851L83.6182 36.9231C82.9409 37.0887 82.5162 37.21 82.3442 37.2851C82.1722 37.3602 82.0154 37.4643 81.873 37.5973L81.6884 36.8281C81.821 36.715 81.9859 36.6226 82.183 36.5511L82.1839 36.5502ZM83.7965 36.0905C83.6245 35.8498 83.4363 35.4715 83.233 34.9556C83.1174 34.6633 83.017 34.4615 82.9328 34.3492C82.8486 34.237 82.7465 34.1592 82.6264 34.1166C82.5064 34.0741 82.3827 34.0678 82.2555 34.0995C82.0611 34.1474 81.9169 34.2614 81.8237 34.4415C81.7296 34.6216 81.7171 34.8551 81.7861 35.1411C81.8542 35.4244 81.976 35.6615 82.1516 35.8525C82.3272 36.0434 82.5342 36.1638 82.7725 36.2154C82.9561 36.2543 83.2088 36.2344 83.5295 36.1557L83.7965 36.0905Z" fill="white"/>
<path d="M81.6147 38.2504L81.5932 38.9943C81.3737 39.0513 81.2205 39.1563 81.1354 39.3075C81.0198 39.5102 80.9804 39.7735 81.0189 40.0966C81.0601 40.4451 81.1605 40.7057 81.3208 40.8786C81.4812 41.0514 81.689 41.1564 81.9453 41.1935C82.1012 41.2143 82.4219 41.1935 82.9075 41.1329C82.4855 40.8505 82.2454 40.4641 82.1881 39.9736C82.1164 39.3636 82.2786 38.8649 82.6745 38.4785C83.0705 38.092 83.574 37.8621 84.1832 37.7888C84.6025 37.7382 84.9976 37.7689 85.3703 37.8793C85.743 37.9898 86.0422 38.1789 86.2698 38.4468C86.4973 38.7147 86.6335 39.045 86.6801 39.4378C86.7419 39.9618 86.5834 40.4179 86.2035 40.8089L86.733 40.7455L86.8145 41.4388L83.0177 41.8949C82.3341 41.9773 81.8414 41.9646 81.5394 41.8587C81.2375 41.7519 80.9858 41.5564 80.7842 41.2714C80.5826 40.9863 80.4563 40.6206 80.4034 40.1754C80.3407 39.6459 80.4088 39.2043 80.6059 38.8504C80.803 38.4966 81.1399 38.2966 81.6156 38.2504H81.6147ZM84.3266 38.5563C83.7505 38.626 83.3438 38.7916 83.1055 39.055C82.8681 39.3183 82.7695 39.6233 82.8107 39.9718C82.851 40.3175 83.0168 40.5908 83.3079 40.7935C83.5991 40.9953 84.0256 41.0632 84.5882 40.9953C85.1257 40.9311 85.5172 40.7618 85.7618 40.4876C86.0064 40.2134 86.1085 39.9066 86.0691 39.5672C86.0297 39.2333 85.8622 38.9654 85.5656 38.7635C85.2691 38.5617 84.8561 38.4929 84.3266 38.5563Z" fill="white"/>
<path d="M83.9004 45.9966L83.8036 46.7794C83.3512 46.6555 83 46.4265 82.7501 46.0925C82.5001 45.7586 82.3756 45.3323 82.3765 44.8128C82.3765 44.1594 82.5763 43.6408 82.9749 43.2589C83.3736 42.8761 83.9327 42.6851 84.6521 42.686C85.3966 42.686 85.9735 42.8806 86.3847 43.268C86.795 43.6553 87.0002 44.1576 87.0002 44.7748C87.0002 45.3721 86.7977 45.8599 86.3955 46.2382C85.9923 46.6165 85.4261 46.8057 84.696 46.8048C84.6512 46.8048 84.5849 46.803 84.4962 46.8003L84.4989 43.468C84.0133 43.496 83.6406 43.6345 83.3826 43.8834C83.1246 44.1332 82.9946 44.4445 82.9946 44.8174C82.9946 45.0952 83.0663 45.3323 83.2106 45.5287C83.3548 45.7251 83.585 45.8808 83.9013 45.9966H83.9004ZM85.1143 43.5105L85.1126 46.0056C85.4844 45.9722 85.7639 45.8771 85.9502 45.7206C86.2396 45.4798 86.3838 45.1667 86.3838 44.783C86.3838 44.4354 86.2692 44.1422 86.0389 43.9051C85.8087 43.668 85.5005 43.5368 85.1143 43.5105Z" fill="white"/>
<path d="M82.4936 47.5225L86.8682 48.1867L86.7688 48.8565L86.1551 48.7632C86.3486 48.9343 86.4938 49.1452 86.5896 49.3949C86.6855 49.6447 86.7124 49.9171 86.6685 50.2113C86.6201 50.5389 86.5126 50.7968 86.3468 50.986C86.1811 51.1751 85.9714 51.2937 85.717 51.3435C86.1757 51.7706 86.3629 52.2639 86.2796 52.825C86.2142 53.263 86.044 53.5825 85.769 53.7816C85.4939 53.9807 85.106 54.0422 84.6061 53.9671L81.603 53.511L81.7141 52.7661L84.4699 53.1843C84.7665 53.2295 84.9833 53.2377 85.1212 53.2087C85.2592 53.1797 85.3766 53.1073 85.476 52.9924C85.5746 52.8766 85.6364 52.7336 85.6624 52.5616C85.7089 52.2512 85.6444 51.977 85.4706 51.7408C85.2968 51.5045 84.9842 51.3525 84.5344 51.2837L81.9927 50.8982L82.1038 50.1497L84.9456 50.5814C85.2753 50.6312 85.5316 50.6077 85.7143 50.5108C85.8971 50.414 86.0091 50.2267 86.0503 49.9488C86.0816 49.7379 86.0557 49.5352 85.9723 49.3388C85.889 49.1424 85.7475 48.9895 85.5486 48.8764C85.3488 48.7641 85.0505 48.6773 84.6518 48.6166L82.3825 48.2718L82.4936 47.5234V47.5225Z" fill="white"/>
<path d="M81.7903 57.725L81.4714 58.4445C81.0745 58.192 80.8048 57.8698 80.6633 57.4761C80.5217 57.0824 80.5253 56.6381 80.6767 56.1421C80.8667 55.5177 81.208 55.0805 81.6998 54.8335C82.1917 54.5864 82.7821 54.5683 83.4693 54.781C84.1806 55.0018 84.6769 55.3575 84.9573 55.8498C85.2378 56.3412 85.2888 56.8824 85.1087 57.4725C84.9349 58.0436 84.6008 58.4508 84.1062 58.6934C83.6117 58.9359 83.015 58.9495 82.3162 58.7323C82.2741 58.7187 82.2105 58.6979 82.1263 58.6689L83.0948 55.4833C82.6217 55.3656 82.2257 55.3882 81.9068 55.5502C81.587 55.7122 81.3737 55.972 81.2653 56.3286C81.1847 56.5937 81.1847 56.8417 81.2653 57.0725C81.346 57.3033 81.5216 57.5205 81.7903 57.7241V57.725ZM83.6708 55.7068L82.946 58.0915C83.3116 58.1694 83.6063 58.1612 83.8294 58.0662C84.1752 57.9214 84.4046 57.6653 84.5166 57.2978C84.6178 56.9657 84.5927 56.6516 84.4413 56.3566C84.2899 56.0616 84.0328 55.8453 83.6717 55.7068H83.6708Z" fill="white"/>
<path d="M79.9205 58.7764L83.9637 60.5882L83.6905 61.2118L83.1153 60.9538C83.428 61.4525 83.4593 61.9856 83.2112 62.5521C83.1028 62.7983 82.9603 63.0046 82.782 63.172C82.6037 63.3395 82.421 63.4426 82.2337 63.4816C82.0465 63.5205 81.8458 63.5169 81.6326 63.4698C81.4946 63.4381 81.2671 63.3521 80.949 63.2101L78.4629 62.096L78.7666 61.4036L81.2259 62.5059C81.5054 62.6308 81.7258 62.6978 81.8879 62.706C82.0501 62.7141 82.2024 62.6679 82.3448 62.5675C82.4873 62.467 82.5993 62.3249 82.6808 62.1403C82.8107 61.8453 82.8295 61.5493 82.7381 61.2525C82.6467 60.9557 82.3421 60.6905 81.8243 60.4588L79.6159 59.4687L79.9196 58.7764H79.9205Z" fill="white"/>
<path d="M77.7527 64.7667L77.1211 64.5368C77.1847 64.3286 77.2573 64.1512 77.3379 64.0037C77.4705 63.763 77.6103 63.5983 77.7581 63.5078C77.9059 63.4173 78.0564 63.3802 78.2087 63.3946C78.361 63.41 78.6334 63.5277 79.0267 63.7485L81.2503 64.9983L81.5173 64.5133L82.027 64.7992L81.7601 65.2843L82.7178 65.8219L82.7482 66.7007L81.3981 65.9423L81.0317 66.6075L80.5219 66.3215L80.8884 65.6563L78.628 64.3865C78.4408 64.2816 78.3144 64.2255 78.2481 64.2191C78.1818 64.2128 78.1182 64.2264 78.0582 64.2617C77.9973 64.297 77.9399 64.363 77.8862 64.4617C77.8459 64.535 77.8011 64.6363 77.7518 64.7667H77.7527Z" fill="white"/>
<path d="M37.357 53.1031C38.7815 50.1193 38.4993 45.8213 35.86 43.6321C32.8784 41.1587 28.9141 39.7767 25.0259 39.5532C24.6639 39.5324 22.7727 39.6346 22.6481 39.4654C22.7798 38.8753 23.622 38.7296 23.0101 38.1495C21.9592 37.1531 21.2846 38.6147 20.9728 39.4717C18.9579 40.1197 17.1482 40.3786 15.4388 41.7307C11.7226 44.6702 11.5255 51.5818 12.658 55.848C15.0823 64.9788 21.6931 72.7294 30.4443 76.163C31.4056 76.5404 32.3194 76.7522 33.3094 77.0237C33.4106 76.9305 32.9474 76.5331 32.8766 76.4209C29.6935 71.3365 28.7779 64.1 32.6849 59.1523C34.3594 57.0318 36.1135 55.7087 37.3579 53.1031H37.357Z" fill="white" fill-opacity="0.6"/>
<path d="M76.9409 41.0517C76.2958 40.4914 75.4832 40.5141 75.4868 40.515C75.4895 40.5186 75.7314 41.3295 76.3388 41.8626C76.948 42.3938 77.7517 42.4906 77.7544 42.4924C77.757 42.4961 77.5868 41.6119 76.9409 41.0526V41.0517Z" fill="white"/>
<path d="M74.0947 39.5257C74.0947 39.5257 74.8437 40.0642 75.5479 40.0859C76.2556 40.1058 76.6731 39.5447 76.6713 39.542C76.6749 39.5393 75.891 38.8895 75.1707 38.903C74.4558 38.9148 74.0965 39.5293 74.0947 39.5257Z" fill="white"/>
<path d="M74.0936 39.5274C74.0936 39.5274 73.7782 40.1573 74.0264 40.8306C74.2745 41.4994 74.9841 42.0144 74.985 42.0198C74.9832 42.0198 75.3792 41.4279 75.1364 40.7229C74.8918 40.0143 74.0918 39.522 74.0927 39.5274H74.0936Z" fill="white"/>
<path d="M74.816 38.2125C74.816 38.2125 73.9989 37.6478 73.293 37.7329C72.5915 37.8161 72.286 38.4587 72.2842 38.456C72.2878 38.4542 73.0618 38.9139 73.7552 38.8641C74.4523 38.8125 74.8187 38.2161 74.8169 38.2134L74.816 38.2125Z" fill="white"/>
<path d="M72.2829 38.4571C72.2829 38.4571 72.0222 39.1114 72.3179 39.7522C72.6135 40.3884 73.349 40.8237 73.3508 40.8282C73.349 40.8291 73.6931 40.2047 73.4001 39.534C73.1054 38.8589 72.2811 38.4525 72.2829 38.4571Z" fill="white"/>
<path d="M72.8903 37.0841C72.8903 37.0841 72.0428 36.6053 71.3548 36.7574C70.6712 36.9076 70.4221 37.5737 70.4194 37.571C70.4221 37.5683 71.2204 37.9502 71.8977 37.8325C72.5786 37.7122 72.8921 37.0868 72.8903 37.0841Z" fill="white"/>
<path d="M70.4195 37.5728C70.4195 37.5728 70.2144 38.247 70.5557 38.8525C70.8962 39.4543 71.6523 39.8118 71.6541 39.8163C71.6523 39.8172 71.9426 39.1656 71.6021 38.5312C71.2608 37.8923 70.4168 37.5692 70.4195 37.5728Z" fill="white"/>
<path d="M70.9087 36.1534C70.9087 36.1534 70.0369 35.7597 69.3722 35.9751C68.711 36.1887 68.5193 36.8738 68.5166 36.871C68.5193 36.8683 69.3346 37.1724 69.9913 36.9905C70.6515 36.8068 70.9104 36.1561 70.9087 36.1534Z" fill="white"/>
<path d="M68.5168 36.8721C68.5168 36.8721 68.369 37.5609 68.7524 38.1301C69.135 38.6948 69.9063 38.9763 69.9081 38.9808C69.9063 38.9817 70.1402 38.3084 69.7558 37.7111C69.3697 37.1102 68.5141 36.8676 68.5159 36.8721H68.5168Z" fill="white"/>
<path d="M68.048 36.3335C68.6832 36.0891 68.8866 35.4185 68.8839 35.4167C68.8866 35.414 67.9943 35.1063 67.3564 35.3814C66.723 35.6538 66.5886 36.3525 66.5859 36.3507C66.5886 36.3479 67.4155 36.576 68.0472 36.3344L68.048 36.3335Z" fill="white"/>
<path d="M66.587 36.3516C66.587 36.3516 66.4974 37.0503 66.9203 37.5806C67.3423 38.1074 68.1235 38.3146 68.1253 38.3182C68.1235 38.3191 68.3009 37.6286 67.8744 37.072C67.4462 36.5109 66.5843 36.348 66.587 36.3516Z" fill="white"/>
<path d="M65.3235 34.9733C64.7206 35.3009 64.6462 36.0086 64.6436 36.0068C64.6462 36.0041 65.4794 36.157 66.0824 35.8593C66.688 35.5588 66.834 34.8728 66.8313 34.871C66.834 34.8683 65.9292 34.6429 65.3235 34.9733Z" fill="white"/>
<path d="M64.6435 36.0079C64.6435 36.0079 64.6122 36.712 65.0727 37.2016C65.5314 37.6885 66.3162 37.8225 66.3189 37.8261C66.3171 37.827 66.4362 37.1247 65.9712 36.6089C65.5036 36.0903 64.6408 36.0043 64.6435 36.0079Z" fill="white"/>
<path d="M62.9218 35.8531C62.9218 35.8531 62.9218 35.845 62.9218 35.8413C63.2103 35.8368 63.7174 35.8024 64.1053 35.5617C64.6778 35.2087 64.7656 34.5137 64.7629 34.5119C64.7656 34.5083 63.8545 34.3644 63.2838 34.7472C62.9362 34.9771 62.7982 35.3336 62.74 35.5735C55.3954 35.2386 48.3545 38.4768 43.9834 44.4426C44.1276 44.5413 44.2728 44.6408 44.4161 44.7413C48.6824 38.9302 55.5575 35.7689 62.7373 36.1029C62.791 36.3491 62.9191 36.7147 63.2202 36.988C63.712 37.4324 64.4968 37.4966 64.4995 37.4993C64.4977 37.5012 64.5578 36.7907 64.0569 36.3183C63.7165 35.9979 63.2085 35.8857 62.9218 35.8531Z" fill="white"/>
<path d="M76.8593 36.2169C76.0512 35.6757 75.3058 35.8051 75.3076 35.8033C75.3121 35.8051 75.8631 36.6812 76.6309 37.2197C77.4013 37.7563 78.1593 37.7591 78.162 37.7582C78.1664 37.76 77.6701 36.7581 76.8593 36.2178V36.2169Z" fill="white"/>
<path d="M75.9966 34.5597C75.9992 34.5543 75.0191 33.9579 74.3562 34.0728C73.6986 34.1832 73.6018 34.8837 73.5991 34.881C73.6018 34.8765 74.5309 35.3842 75.192 35.3208C75.8577 35.2539 75.9992 34.5633 75.9966 34.5606V34.5597Z" fill="white"/>
<path d="M73.5981 34.8819C73.5981 34.8819 73.5479 35.5932 74.0478 36.3073C74.5477 37.0168 75.4221 37.5372 75.4248 37.5417C75.4239 37.5444 75.5717 36.8322 75.0638 36.0756C74.554 35.3154 73.5963 34.8773 73.599 34.8819H73.5981Z" fill="white"/>
<path d="M73.7372 33.3744C73.7399 33.3699 72.7401 32.8848 72.1013 33.0658C71.4679 33.2423 71.424 33.9428 71.4204 33.9401C71.4222 33.9355 72.3647 34.3392 73.0062 34.2061C73.6512 34.0695 73.7399 33.3762 73.7363 33.3735L73.7372 33.3744Z" fill="white"/>
<path d="M71.4214 33.9424C71.4214 33.9424 71.4241 34.6492 71.9616 35.2981C72.4992 35.9434 73.3888 36.3588 73.3906 36.3634C73.3906 36.3661 73.4846 35.652 72.9355 34.9633C72.3845 34.271 71.4187 33.9379 71.4214 33.9424Z" fill="white"/>
<path d="M71.4483 32.441C71.4501 32.4365 70.4395 32.06 69.8303 32.3026C69.2247 32.5406 69.2345 33.2375 69.231 33.2356C69.2327 33.2311 70.1806 33.5343 70.7961 33.3379C71.4152 33.137 71.4519 32.4437 71.4483 32.441Z" fill="white"/>
<path d="M71.3247 35.4225C71.3247 35.4225 71.3659 34.7129 70.7809 34.0903C70.1941 33.464 69.2274 33.2332 69.231 33.2369C69.231 33.2396 69.2856 33.9355 69.8563 34.5211C70.427 35.103 71.3229 35.418 71.3256 35.4225H71.3247Z" fill="white"/>
<path d="M68.5758 32.7008C69.1644 32.4411 69.1491 31.7506 69.1455 31.7488C69.1473 31.7442 68.1332 31.4709 67.5571 31.7705C66.9855 32.0655 67.0465 32.7551 67.0429 32.7533C67.0447 32.7488 67.9907 32.957 68.5758 32.7008Z" fill="white"/>
<path d="M68.6172 33.4478C67.999 32.8876 67.0404 32.7518 67.044 32.7554C67.044 32.7582 67.1497 33.4433 67.7481 33.9664C68.3466 34.4858 69.2416 34.7058 69.2443 34.7094C69.2443 34.7121 69.2335 34.0053 68.6172 33.4478Z" fill="white"/>
<path d="M66.3657 32.2872C66.9202 31.9722 66.853 31.2898 66.8495 31.288C66.8512 31.2835 65.8416 31.1088 65.3031 31.4609C64.7683 31.8075 64.8812 32.4872 64.8767 32.4863C64.8776 32.4817 65.8147 32.5985 66.3657 32.2881V32.2872Z" fill="white"/>
<path d="M65.6532 33.6224C66.2741 34.0803 67.1619 34.2097 67.1655 34.2134C67.1655 34.2161 67.1037 33.5174 66.4613 33.0251C65.8172 32.5291 64.8729 32.4857 64.8765 32.4884C64.8765 32.4902 65.0315 33.1617 65.6541 33.6233L65.6532 33.6224Z" fill="white"/>
<path d="M64.1799 32.0856C64.6959 31.7208 64.5777 31.0484 64.5741 31.0475C64.575 31.043 63.5769 30.9633 63.0797 31.3616C62.5852 31.7552 62.7482 32.4213 62.7446 32.4204C62.7446 32.4159 63.6674 32.4458 64.1799 32.0856Z" fill="white"/>
<path d="M63.5891 33.4784C64.2287 33.8757 65.1023 33.9191 65.1058 33.9218C65.1058 33.9245 64.9929 33.2376 64.33 32.8077C63.6652 32.376 62.7407 32.4186 62.7451 32.4213C62.7451 32.4231 62.9485 33.0774 63.59 33.4774L63.5891 33.4784Z" fill="white"/>
<path d="M44.3068 43.9882C47.0698 38.1182 53.1449 33.5642 60.7878 32.7859C60.9222 33.0022 61.1686 33.3162 61.569 33.5253C62.223 33.8638 63.0759 33.8257 63.0795 33.8285C63.0795 33.8312 62.9174 33.1587 62.2374 32.7922C61.7769 32.5433 61.2107 32.5162 60.9007 32.5307C60.8998 32.527 60.898 32.5234 60.8971 32.5198C61.1963 32.4718 61.7142 32.365 62.0349 32.0872C62.5088 31.6781 62.3413 31.0193 62.3377 31.0184C62.3377 31.0138 61.3585 31.0238 60.9052 31.4645C60.6283 31.7297 60.6041 32.0754 60.6212 32.3035C52.9908 33.1225 46.8915 37.6268 44.004 43.4932C45.493 37.8829 50.3918 32.2601 57.9451 29.8708C58.2228 30.0518 58.6788 30.3061 59.2388 30.431C60.1517 30.6328 61.0458 30.4274 61.0503 30.4283C61.0539 30.4301 60.4608 29.7713 59.5031 29.5559C58.8553 29.4092 58.2345 29.5133 57.9102 29.5966C57.9066 29.593 57.903 29.5903 57.8994 29.5866C58.1906 29.4717 58.678 29.25 58.832 28.9006C59.0623 28.3839 58.4244 27.7766 58.419 27.7784C58.4164 27.773 57.4156 28.0309 57.2284 28.5649C57.1119 28.8871 57.3063 29.2237 57.4676 29.44C49.6356 32.0438 44.6732 38.0676 43.376 43.9601C43.5444 43.9719 43.7119 43.9873 43.8777 44.0045C43.8893 43.9538 43.9019 43.904 43.9135 43.8534C44.0452 43.8977 44.1769 43.942 44.3068 43.9882Z" fill="white"/>
<path d="M77.4757 30.9278C77.481 30.9251 76.3952 29.8463 75.3927 29.506C74.3956 29.163 73.9189 29.6128 73.9189 29.6083C73.9243 29.6056 75.0164 30.5178 75.9795 30.9043C76.9471 31.288 77.4748 30.9314 77.4757 30.9269V30.9278Z" fill="white"/>
<path d="M73.4583 29.0448C73.9179 28.7027 73.4655 27.7732 73.4601 27.7732C73.4601 27.766 72.2587 27.4302 71.8305 27.8121C71.4067 28.1859 71.8645 29.0692 71.8591 29.0701C71.8591 29.0629 73.0023 29.3787 73.4583 29.0448Z" fill="white"/>
<path d="M73.9353 30.0474C72.9695 29.2736 71.8568 29.07 71.8604 29.0718C71.8622 29.0754 72.3648 29.9614 73.2947 30.7008C74.2264 31.4366 75.2899 31.804 75.2926 31.8059C75.2943 31.8104 74.901 30.8194 73.9344 30.0474H73.9353Z" fill="white"/>
<path d="M70.855 28.4453C71.2815 28.0652 70.7887 27.19 70.7834 27.1909C70.7834 27.1837 69.5981 26.9638 69.2057 27.3801C68.8169 27.7882 69.3123 28.619 69.3069 28.619C69.3069 28.6127 70.4322 28.8163 70.855 28.4444V28.4453Z" fill="white"/>
<path d="M70.7912 30.0918C71.7355 30.7272 72.7873 30.9824 72.7909 30.9842C72.7927 30.9878 72.3564 30.0547 71.3745 29.3877C70.3935 28.7189 69.304 28.6203 69.3076 28.6221C69.3103 28.6248 69.847 29.4538 70.7912 30.0918Z" fill="white"/>
<path d="M68.2972 28.097C68.6878 27.6816 68.1584 26.8626 68.1539 26.8635C68.1539 26.8571 66.9919 26.7458 66.6371 27.1929C66.2859 27.6318 66.8145 28.4102 66.8091 28.4111C66.8082 28.4047 67.9093 28.5043 68.2972 28.097Z" fill="white"/>
<path d="M66.8101 28.4132C66.8101 28.4132 67.3817 29.1879 68.3313 29.73C69.2819 30.2694 70.3148 30.4187 70.3184 30.4205C70.3211 30.4241 69.8445 29.5481 68.8554 28.9806C67.8663 28.4113 66.8065 28.4123 66.8101 28.4132Z" fill="white"/>
<path d="M65.8013 27.9831C66.1543 27.5369 65.5926 26.7712 65.5881 26.773C65.5872 26.7667 64.4566 26.7577 64.1412 27.2328C63.8294 27.6998 64.3867 28.4256 64.3822 28.4265C64.3804 28.4211 65.451 28.422 65.8013 27.9831Z" fill="white"/>
<path d="M64.3838 28.4274C64.3838 28.4274 64.9832 29.146 65.9319 29.5967C66.8816 30.0447 67.8895 30.0954 67.893 30.0972C67.8957 30.1008 67.3842 29.28 66.3942 28.8075C65.4042 28.3333 64.3793 28.4265 64.3838 28.4274Z" fill="white"/>
<path d="M63.3834 28.0888C63.6969 27.6155 63.1065 26.9032 63.1012 26.905C63.0994 26.8996 62.0064 26.9856 61.7331 27.4842C61.4617 27.9748 62.0458 28.649 62.0413 28.6508C62.0395 28.6454 63.0725 28.5549 63.3834 28.0888Z" fill="white"/>
<path d="M62.0419 28.6519C62.0419 28.6519 62.6646 29.3162 63.6071 29.6791C64.5504 30.0402 65.5252 29.9995 65.5288 30.0004C65.5315 30.0031 64.9894 29.2375 64.0048 28.8556C63.0202 28.4718 62.0374 28.651 62.041 28.6519H62.0419Z" fill="white"/>
<path d="M61.0548 28.3996C61.3271 27.9027 60.7107 27.2429 60.7063 27.2448C60.7045 27.2393 59.6545 27.4149 59.4233 27.9326C59.194 28.443 59.8014 29.0675 59.7969 29.0693C59.7951 29.0638 60.7842 28.8892 61.0548 28.3996Z" fill="white"/>
<path d="M61.7044 29.1098C60.7306 28.812 59.7944 29.07 59.7988 29.0709C59.8015 29.0727 60.4421 29.6808 61.3721 29.9623C62.3029 30.241 63.24 30.1152 63.2445 30.1162C63.2472 30.1189 62.6783 29.4066 61.7044 29.1098Z" fill="white"/>
</g>
<defs>
<clipPath id="clip0_143_3590">
<rect width="87" height="79" fill="white"/>
</clipPath>
</defs>
</svg>
