<svg width="145" height="145" viewBox="0 0 145 145" fill="none" xmlns="http://www.w3.org/2000/svg">
<path d="M23.7891 135.936H7.92969C7.02836 135.936 6.16398 135.578 5.52661 134.941C4.88931 134.303 4.53125 133.439 4.53125 132.538V26.0532C4.53125 25.1519 4.88931 24.2875 5.52661 23.6502C6.16398 23.0128 7.02836 22.6548 7.92969 22.6548H23.7891C24.6904 22.6548 25.5548 23.0128 26.1921 23.6502C26.8294 24.2875 27.1875 25.1519 27.1875 26.0532V132.538C27.1875 133.439 26.8294 134.303 26.1921 134.941C25.5548 135.578 24.6904 135.936 23.7891 135.936Z" fill="#85A9C0"/>
<path d="M67.9749 58.9048V44.1782C67.9749 43.2768 67.6169 42.4125 66.9792 41.7752C66.3421 41.1378 65.4778 40.7798 64.5764 40.7798H35.1233C34.2216 40.7798 33.3573 41.1378 32.7202 41.7752C32.0828 42.4125 31.7249 43.2768 31.7249 44.1782V58.9048H67.9749Z" fill="#37779F"/>
<path d="M31.7249 117.811V132.538C31.7249 133.439 32.0828 134.303 32.7202 134.941C33.3573 135.578 34.2216 135.936 35.1233 135.936H64.5764C65.4778 135.936 66.3421 135.578 66.9792 134.941C67.6169 134.303 67.9749 133.439 67.9749 132.538V117.811H31.7249Z" fill="#37779F"/>
<path d="M67.9749 67.9673H31.7249V108.749H67.9749V67.9673Z" fill="#37779F"/>
<path d="M96.2891 135.936H75.8984C74.997 135.936 74.1328 135.578 73.4954 134.941C72.858 134.303 72.5 133.439 72.5 132.538V12.4595C72.5 11.5581 72.858 10.6938 73.4954 10.0564C74.1328 9.41909 74.997 9.06104 75.8984 9.06104H96.2891C97.1905 9.06104 98.0547 9.41909 98.6921 10.0564C99.3295 10.6938 99.6875 11.5581 99.6875 12.4595V132.538C99.6875 133.439 99.3295 134.303 98.6921 134.941C98.0547 135.578 97.1905 135.936 96.2891 135.936Z" fill="#A3BA99"/>
<path d="M104.502 28.5165L112.998 132.687C113.035 133.144 113.165 133.588 113.379 133.994C113.593 134.399 113.887 134.757 114.242 135.046C114.598 135.335 115.009 135.549 115.45 135.675C115.89 135.801 116.352 135.837 116.807 135.78L137.243 133.231C138.113 133.122 138.907 132.681 139.46 132C140.013 131.32 140.281 130.451 140.208 129.578L131.689 25.8289C131.652 25.3783 131.525 24.9397 131.315 24.5388C131.106 24.1379 130.819 23.7828 130.471 23.4942C130.123 23.2057 129.721 22.9895 129.288 22.8584C128.855 22.7273 128.401 22.6839 127.951 22.7306L107.524 24.8575C106.642 24.9528 105.833 25.3887 105.268 26.0722C104.704 26.7558 104.429 27.6329 104.502 28.5165Z" fill="#90B884"/>
</svg>
